<svg id="_x31_px" enable-background="new 0 0 24 24" height="512" viewBox="0 0 24 24" width="512" xmlns="http://www.w3.org/2000/svg"><path d="m17.5 24c-3.584 0-6.5-2.916-6.5-6.5s2.916-6.5 6.5-6.5 6.5 2.916 6.5 6.5-2.916 6.5-6.5 6.5zm0-12c-3.033 0-5.5 2.468-5.5 5.5s2.467 5.5 5.5 5.5 5.5-2.468 5.5-5.5-2.467-5.5-5.5-5.5z"/><path d="m18.5 8h-15c-1.93 0-3.5-1.57-3.5-3.5s1.57-3.5 3.5-3.5h15c1.93 0 3.5 1.57 3.5 3.5s-1.57 3.5-3.5 3.5zm-15-6c-1.378 0-2.5 1.121-2.5 2.5s1.122 2.5 2.5 2.5h15c1.378 0 2.5-1.121 2.5-2.5s-1.122-2.5-2.5-2.5z"/><path d="m9.5 14h-6c-1.93 0-3.5-1.57-3.5-3.5 0-.934.364-1.812 1.026-2.474s1.541-1.026 2.474-1.026h15c1.416 0 2.681.839 3.221 2.138.106.255-.014.548-.269.654-.253.104-.548-.014-.654-.27-.385-.924-1.287-1.522-2.298-1.522h-15c-.666 0-1.293.261-1.767.733s-.733 1.101-.733 1.767c0 1.379 1.122 2.5 2.5 2.5h6c.276 0 .5.224.5.5s-.224.5-.5.5z"/><path d="m8.5 20h-5c-1.93 0-3.5-1.57-3.5-3.5 0-.934.364-1.812 1.026-2.474s1.541-1.026 2.474-1.026h6c.276 0 .5.224.5.5s-.224.5-.5.5h-6c-.666 0-1.293.261-1.767.733s-.733 1.101-.733 1.767c0 1.379 1.122 2.5 2.5 2.5h5c.276 0 .5.224.5.5s-.224.5-.5.5z"/><path d="m4.5 12c-.827 0-1.5-.673-1.5-1.5s.673-1.5 1.5-1.5 1.5.673 1.5 1.5-.673 1.5-1.5 1.5zm0-2c-.276 0-.5.225-.5.5s.224.5.5.5.5-.225.5-.5-.224-.5-.5-.5z"/><path d="m9.5 12c-.827 0-1.5-.673-1.5-1.5s.673-1.5 1.5-1.5 1.5.673 1.5 1.5-.673 1.5-1.5 1.5zm0-2c-.276 0-.5.225-.5.5s.224.5.5.5.5-.225.5-.5-.224-.5-.5-.5z"/><path d="m4.5 18c-.827 0-1.5-.673-1.5-1.5s.673-1.5 1.5-1.5 1.5.673 1.5 1.5-.673 1.5-1.5 1.5zm0-2c-.276 0-.5.225-.5.5s.224.5.5.5.5-.225.5-.5-.224-.5-.5-.5z"/><path d="m9.5 18c-.827 0-1.5-.673-1.5-1.5s.673-1.5 1.5-1.5c.276 0 .5.224.5.5s-.224.5-.5.5-.5.225-.5.5.224.5.5.5.5.224.5.5-.224.5-.5.5z"/><path d="m4.5 6c-.827 0-1.5-.673-1.5-1.5s.673-1.5 1.5-1.5 1.5.673 1.5 1.5-.673 1.5-1.5 1.5zm0-2c-.276 0-.5.225-.5.5s.224.5.5.5.5-.225.5-.5-.224-.5-.5-.5z"/><path d="m9.5 6c-.827 0-1.5-.673-1.5-1.5s.673-1.5 1.5-1.5 1.5.673 1.5 1.5-.673 1.5-1.5 1.5zm0-2c-.276 0-.5.225-.5.5s.224.5.5.5.5-.225.5-.5-.224-.5-.5-.5z"/><path d="m20.5 18h-6c-.276 0-.5-.224-.5-.5s.224-.5.5-.5h6c.276 0 .5.224.5.5s-.224.5-.5.5z"/><path d="m17.5 21c-.276 0-.5-.224-.5-.5v-6c0-.276.224-.5.5-.5s.5.224.5.5v6c0 .276-.224.5-.5.5z"/></svg>