<svg width="26" height="26" viewBox="0 0 26 26" fill="none" xmlns="http://www.w3.org/2000/svg">
<g clip-path="url(#clip0)">
<path d="M24.1901 18.3426C24.1901 18.297 24.1901 18.297 24.1901 18.2514V17.7956L23.9622 17.6588C21.9111 16.5649 20.9539 15.0152 20.9539 12.9184C20.9539 11.1407 21.7287 9.63656 23.1418 8.6338L23.6887 8.36034L23.3241 7.90455C22.4125 6.76504 20.8627 5.2153 18.4469 5.2153C17.9866 5.2153 17.5585 5.32836 17.1338 5.49623C18.1335 4.4142 18.6748 3.04081 18.6748 1.47768C18.6748 1.20422 18.6748 0.930703 18.6293 0.611623V0.520435V0.474866L18.5837 0.33811C18.5381 0.246923 18.4925 0.110217 18.3558 0.0646489C18.2191 0.0190805 18.1279 -0.0265387 17.9912 0.0190805C15.5754 0.70281 13.0228 2.61719 13.0228 5.99017C13.0228 6.18462 13.0231 6.37938 13.0437 6.59449C12.6463 6.49071 12.2978 6.29657 11.9289 6.08136C11.2908 5.71671 10.607 5.30649 9.55866 5.30649C4.95498 5.30649 1.76433 9.49996 1.76433 13.2376C1.76433 15.2887 2.40244 18.844 4.22568 22.1259C5.63871 24.6784 7.27958 26.0003 9.01169 26.0003C9.6498 26.0003 10.288 25.7724 11.0173 25.5445C11.7466 25.2254 12.567 24.9519 13.3875 24.9519C14.0712 24.9519 14.7549 25.2254 15.4386 25.4533C16.1223 25.6812 16.8516 25.9547 17.5809 25.9547C21.1818 25.9547 24.2358 21.4422 24.2358 18.6162C24.2357 18.5249 24.1901 18.4337 24.1901 18.3426ZM17.7176 1.06741C17.7632 1.24973 17.7632 1.38649 17.7176 1.52319C17.7176 4.62271 15.393 5.99012 13.9345 6.53709C13.8889 6.3092 13.8889 6.12688 13.8889 5.99012C13.8888 3.34644 15.8032 1.75109 17.7176 1.06741ZM23.3241 18.4337C23.3241 18.4793 23.3241 18.5248 23.3241 18.5705C23.3241 21.989 19.7688 24.9974 17.5809 24.9974C16.9884 24.9974 16.3502 24.7695 15.7121 24.5416C14.9372 24.2681 14.1623 23.9946 13.3419 23.9946C12.3391 23.9946 11.4275 24.3137 10.6526 24.6327C10.0601 24.8606 9.46753 25.0885 9.01169 25.0885C7.27963 25.0885 5.8666 23.2653 5.04617 21.7155C3.31411 18.5705 2.67595 15.1975 2.67595 13.2375C2.67595 9.08964 6.32244 6.21801 9.55866 6.21801C10.3335 6.21801 10.8805 6.53709 11.5187 6.90174C12.1568 7.26639 12.7949 7.63104 13.7066 7.63104C14.8916 7.63104 15.8489 7.17526 16.6693 6.76499C17.3531 6.44591 17.9 6.17245 18.4926 6.17245C20.2702 6.17245 21.5009 7.12964 22.367 8.13245C20.9084 9.27196 20.0879 10.9585 20.0879 12.9185C20.0879 15.2887 21.1363 17.0663 23.3241 18.297C23.3241 18.3426 23.3241 18.3881 23.3241 18.4337Z" fill="black"/>
</g>
<defs>
<clipPath id="clip0">
<rect width="26" height="26" fill="white"/>
</clipPath>
</defs>
</svg>
