<svg id="Layer_1" height="512" viewBox="0 0 90 90" width="512" xmlns="http://www.w3.org/2000/svg" data-name="Layer 1"><path d="m50.894 61.841a6.336 6.336 0 0 1 -4.511-1.869 34.021 34.021 0 0 0 -19.133-9.5 20.357 20.357 0 1 1 17.505-34.508 20.151 20.151 0 0 1 5.723 11.342 33.793 33.793 0 0 0 9.489 19.082 6.386 6.386 0 0 1 0 9.021l-4.567 4.563a6.335 6.335 0 0 1 -4.506 1.869zm-20.545-49.841c-.337 0-.674.01-1.013.028a18.355 18.355 0 0 0 -1.785 36.472 36 36 0 0 1 20.249 10.058 4.377 4.377 0 0 0 6.192 0l4.561-4.558a4.385 4.385 0 0 0 0-6.193 35.8 35.8 0 0 1 -10.053-20.207 18.161 18.161 0 0 0 -5.158-10.224 18.393 18.393 0 0 0 -12.993-5.376z"/><path d="m39.91 20.809a13.527 13.527 0 0 0 -19.1 0l-1.414-1.414a15.4 15.4 0 0 1 10.965-4.535 15.408 15.408 0 0 1 10.963 4.54z"/><path d="m68.981 80a5.749 5.749 0 0 1 -3.066-.878 5.867 5.867 0 0 1 -2.745-5.643 7.609 7.609 0 0 0 -2.344-6.09l-7.126-7.125a1 1 0 0 1 0-1.414l5.144-5.15a1.029 1.029 0 0 1 1.414 0l7.129 7.128a7.606 7.606 0 0 0 6.09 2.345 5.886 5.886 0 0 1 5.643 2.747 5.835 5.835 0 0 1 -4.334 8.871 5.848 5.848 0 0 1 -5.805 5.209zm-13.162-20.443 6.421 6.421a9.492 9.492 0 0 1 2.918 7.727 3.883 3.883 0 0 0 1.823 3.729 3.835 3.835 0 0 0 5.828-3.555 1 1 0 0 1 1.065-1.065 3.835 3.835 0 0 0 3.555-5.827 3.892 3.892 0 0 0 -3.729-1.823 9.487 9.487 0 0 1 -7.727-2.919l-6.422-6.421z"/></svg>