<svg width="25" height="25" viewBox="0 0 25 25" fill="none" xmlns="http://www.w3.org/2000/svg">
<g clip-path="url(#clip0)">
<path d="M0.0790958 2.29325L1.7464 5.21086C1.80264 5.30945 1.89677 5.38078 2.00685 5.40838L3.56236 5.79726L8.89741 11.1323L9.4869 10.543L4.06834 5.12461C4.01502 5.07111 3.94815 5.03322 3.87493 5.01487L2.38029 4.63989L0.960756 2.15437L2.1778 0.937328L4.66434 2.35824L5.0395 3.85287C5.05768 3.92626 5.09574 3.9933 5.14907 4.04663L10.5676 9.46518L11.1569 8.87569L5.82189 3.54064L5.43301 1.98599C5.4054 1.87574 5.33408 1.78144 5.23549 1.72503L2.31771 0.0578973C2.15499 -0.0346924 1.95027 -0.00725839 1.81755 0.124939L0.150424 1.79224C0.0163405 1.92409 -0.0128081 2.12916 0.0790958 2.29325Z" fill="black"/>
<path d="M17.4079 8.21468L8.23831 17.3845L7.64882 16.795L16.8186 7.62537L17.4079 8.21468Z" fill="black"/>
<path d="M6.6334 17.7089C6.55796 17.5834 6.4225 17.5067 6.27607 17.5067H3.7753C3.62904 17.5067 3.49341 17.5834 3.41814 17.7089L2.16766 19.7928C2.08828 19.9249 2.08828 20.09 2.16766 20.2222L3.41814 22.3061C3.49341 22.4315 3.62904 22.5083 3.7753 22.5083H6.27607C6.4225 22.5083 6.55796 22.4315 6.6334 22.3061L7.88371 20.2222C7.96309 20.09 7.96309 19.9249 7.88371 19.7928L6.6334 17.7089ZM6.04031 21.6746H4.01123L3.01092 20.0075L4.01123 18.3402H6.04031L7.04063 20.0075L6.04031 21.6746Z" fill="black"/>
<path d="M20.0306 10.0041C22.7835 10.0134 25.0228 7.78917 25.032 5.03634C25.0334 4.61729 24.982 4.19995 24.8789 3.79376C24.8234 3.57034 24.5972 3.43437 24.3738 3.48993C24.3004 3.50827 24.2335 3.54617 24.18 3.59949L21.5855 6.19234L19.5269 5.50632L18.8403 3.44826L21.4349 0.853185C21.5976 0.690296 21.5975 0.426416 21.4346 0.263699C21.3809 0.210031 21.3134 0.171967 21.2395 0.153792C18.5698 -0.522283 15.8578 1.09375 15.1817 3.76324C15.079 4.16823 15.0277 4.58454 15.0291 5.00239C15.0301 5.33057 15.0639 5.65772 15.1304 5.97904L6.00227 15.107C5.68095 15.0406 5.3538 15.0069 5.02579 15.0057C2.26336 15.0057 0.0240631 17.245 0.0240631 20.0074C0.0240631 22.7696 2.26336 25.0089 5.02579 25.0089C7.78805 25.0089 10.0274 22.7696 10.0274 20.0074C10.0263 19.6792 9.99237 19.352 9.92602 19.0307L12.1113 16.8454L13.067 17.8012C13.2299 17.9639 13.4936 17.9639 13.6565 17.8012L13.8649 17.5927C14.0476 17.4111 14.3431 17.4111 14.5258 17.5927C14.7084 17.7748 14.7088 18.0704 14.5267 18.253C14.5265 18.2531 14.5262 18.2535 14.5258 18.2538L14.3175 18.4622C14.1548 18.6249 14.1548 18.8888 14.3175 19.0515L19.2896 24.0235C20.5973 25.3433 22.7272 25.3529 24.047 24.0451C25.3666 22.7374 25.3762 20.6073 24.0684 19.2878C24.0614 19.2805 24.0542 19.2733 24.047 19.2661L19.0749 14.2943C18.9122 14.1315 18.6483 14.1315 18.4856 14.2943L18.2773 14.5026C18.0943 14.6843 17.7991 14.6843 17.6161 14.5026C17.4337 14.3205 17.4332 14.0249 17.6152 13.8425C17.6156 13.8421 17.6159 13.8419 17.6161 13.8416L17.8246 13.6331C17.9873 13.4704 17.9873 13.2065 17.8246 13.0438L16.8689 12.0881L19.0542 9.90278C19.3755 9.96913 19.7026 10.0031 20.0306 10.0041ZM21.6683 24.1754C21.3655 24.1749 21.0652 24.1202 20.7818 24.0138L24.037 20.7584C24.5283 22.0651 23.8673 23.5225 22.5606 24.0138C22.2754 24.1209 21.9731 24.1758 21.6683 24.1754ZM16.9464 13.3426C16.4848 13.8932 16.5572 14.7138 17.1077 15.1752C17.5916 15.5807 18.2968 15.5804 18.7802 15.174L23.4577 19.8556C23.5084 19.9066 23.5559 19.9602 23.6019 20.0147L20.0382 23.5784C19.9835 23.5326 19.9298 23.4851 19.8789 23.4342L15.1978 18.7528C15.6594 18.2022 15.587 17.3816 15.0365 16.9202C14.5526 16.5145 13.8472 16.515 13.3638 16.9212L12.697 16.2544L16.2794 12.6774L16.9464 13.3426ZM18.6294 9.15057L9.17415 18.604C9.07042 18.7075 9.02875 18.8579 9.06408 19C9.6359 21.2457 8.27895 23.5297 6.03313 24.1014C3.78749 24.6732 1.50344 23.3162 0.931614 21.0704C0.359958 18.8248 1.71691 16.5408 3.96273 15.9689C4.64206 15.7961 5.3538 15.7961 6.03313 15.9689C6.17528 16.0037 6.32531 15.9621 6.42921 15.859L15.8823 6.40547C15.9858 6.3019 16.0275 6.15153 15.9918 6.00956C15.424 3.79016 16.7627 1.53063 18.9821 0.962578C19.4015 0.855414 19.8353 0.814263 20.2674 0.841183L18.0688 3.0407C17.9571 3.15215 17.9181 3.31727 17.9679 3.46695L18.8014 5.9679C18.8431 6.09221 18.9408 6.18994 19.0653 6.23126L21.5663 7.06491C21.7158 7.11481 21.8809 7.07588 21.9925 6.96443L24.1912 4.76578C24.1961 4.84533 24.1987 4.92404 24.1987 5.00239C24.2104 7.29261 22.3634 9.15863 20.0732 9.17046C19.7191 9.17218 19.3662 9.12863 19.0233 9.04084C18.8812 9.00535 18.7308 9.04684 18.6272 9.1504H18.6294V9.15057Z" fill="black"/>
<path d="M21.5762 20.9631L20.9867 21.5526L16.8188 17.3847L17.4081 16.7952L21.5762 20.9631Z" fill="black"/>
</g>
<defs>
<clipPath id="clip0">
<rect width="25" height="25" fill="white"/>
</clipPath>
</defs>
</svg>
