<svg id="Layer_1" data-name="Layer 1" xmlns="http://www.w3.org/2000/svg" viewBox="0 0 2375.65 2375.65"><defs><style>.cls-1{fill:#797c7c;}.cls-2{fill:#737f7f;}.cls-3{fill:#839393;}.cls-4{fill:#fff;}</style></defs><title>Untitled-2-05</title><circle class="cls-1" cx="1187.82" cy="1187.82" r="1187.82"/><path class="cls-2" d="M2121.46,486.19c118.28,184.67,186.87,404.23,186.87,639.82,0,656-531.81,1187.82-1187.82,1187.82-227.84,0-440.66-64.2-621.46-175.41,211.11,329.57,580.52,548,1001,548,656,0,1187.82-531.81,1187.82-1187.82C2687.82,1070.42,2461.23,695.2,2121.46,486.19Z" transform="translate(-312.18 -312.18)"/><path class="cls-3" d="M473.62,1625.32c0-609.08,493.75-1102.83,1102.82-1102.83,356,0,672.56,168.75,874.2,430.56-190.44-330.6-547.37-553.17-956.29-553.17-609.07,0-1102.82,493.75-1102.82,1102.82,0,253.07,85.3,486.17,228.63,672.27C527,2013.16,473.62,1825.47,473.62,1625.32Z" transform="translate(-312.18 -312.18)"/><g id="_5JeKWn.tif" data-name="5JeKWn.tif"><path class="cls-4" d="M1800.91,2257.79H1379.52c-42.66-14.07-75.19-39.37-69.52-88.27,7.66-66.11-17.16-112.41-71.22-147.51-17.55-11.39-34.19-26.28-46.72-43-46.63-62.19-100-121.39-134.68-190-45.52-90.11-8.13-159.77,87.7-191.75,22.09-7.38,44.48-13.87,67.82-21.11,0-46.7-2.28-90.64.63-134.24,3-45.61,20.7-85.82,64.1-107.66,35.11-17.67,69.53-11.1,101.32,10.58,7,4.75,12.93,11,24.46,21v-50.3c0-158.19-.32-316.38.23-474.57.17-50.21,35.1-90.45,82-97.74,44.77-7,91.9,21.61,104.76,66.69,5.34,18.73,5.18,39.42,5.23,59.22q.57,237.28.21,474.57v40.78c92.42-60.81,155.42-42.37,199.74,57.49,34.81-25.63,71.24-40.11,112.74-15.12,40.91,24.64,53.8,62.21,53.51,108q-1.2,189.42.06,378.84c.35,44.91-9.05,87.68-44.07,114.82-42.23,32.75-49.67,72.22-47.4,121.32C1873.59,2218.2,1861.76,2232.75,1800.91,2257.79Z" transform="translate(-312.18 -312.18)"/></g></svg>