<svg width="25" height="25" viewBox="0 0 25 25" fill="none" xmlns="http://www.w3.org/2000/svg">
<path d="M6.0227 13.3511C5.45605 13.1408 4.96557 12.7652 4.61474 12.273C4.58492 12.2312 4.54718 12.1958 4.50365 12.1686C4.46013 12.1414 4.41169 12.1231 4.36109 12.1147C4.31049 12.1063 4.25872 12.1079 4.20874 12.1194C4.15877 12.131 4.11156 12.1523 4.06982 12.1821C4.02807 12.212 3.99261 12.2497 3.96546 12.2932C3.9383 12.3367 3.91998 12.3852 3.91155 12.4358C3.90312 12.4864 3.90473 12.5382 3.9163 12.5881C3.92788 12.6381 3.94918 12.6853 3.979 12.7271C4.42024 13.3462 5.03718 13.8187 5.74995 14.0834C5.79802 14.1013 5.84915 14.1095 5.90041 14.1077C5.95168 14.1058 6.00208 14.0939 6.04874 14.0726C6.09539 14.0512 6.13739 14.0209 6.17233 13.9834C6.20728 13.9458 6.23448 13.9017 6.25239 13.8537C6.2703 13.8056 6.27856 13.7545 6.27671 13.7032C6.27486 13.6519 6.26293 13.6015 6.2416 13.5549C6.22028 13.5082 6.18997 13.4662 6.15241 13.4313C6.11485 13.3963 6.07077 13.3691 6.0227 13.3512V13.3511Z" fill="black"/>
<path d="M8.49771 13.3877C8.19015 13.4897 7.86819 13.5417 7.54414 13.5416H7.08008C6.97648 13.5416 6.87712 13.5827 6.80386 13.656C6.73061 13.7292 6.68945 13.8286 6.68945 13.9322C6.68945 14.0358 6.73061 14.1352 6.80386 14.2084C6.87712 14.2817 6.97648 14.3228 7.08008 14.3228H7.54395C7.9516 14.323 8.35662 14.2576 8.74351 14.1291C8.79275 14.1134 8.83838 14.0881 8.87776 14.0546C8.91714 14.0212 8.94948 13.9802 8.97293 13.9342C8.99637 13.8881 9.01044 13.8379 9.01433 13.7863C9.01821 13.7348 9.01183 13.683 8.99556 13.634C8.97929 13.5849 8.95344 13.5396 8.91953 13.5006C8.88561 13.4616 8.84429 13.4297 8.79797 13.4068C8.75164 13.3839 8.70123 13.3704 8.64966 13.3671C8.59809 13.3638 8.54637 13.3708 8.49752 13.3877H8.49771Z" fill="black"/>
<path d="M23.0469 10.1562H22.5213C22.2869 9.26189 21.763 8.4703 21.0314 7.90499C20.2997 7.33968 19.4016 7.03245 18.477 7.03125H17.4605C17.1862 7.0313 16.9126 7.05834 16.6436 7.11196C16.6093 7.08554 16.5708 7.06503 16.5298 7.05127L15.3579 6.66064C15.3181 6.6474 15.2764 6.64064 15.2344 6.64062H9.76562C9.72364 6.64064 9.68193 6.6474 9.64209 6.66064L8.47021 7.05127C8.42918 7.06503 8.39073 7.08554 8.35645 7.11196C8.08744 7.05834 7.8138 7.0313 7.5395 7.03125H6.523C5.59842 7.03245 4.70025 7.33968 3.96864 7.90499C3.23702 8.4703 2.71311 9.26189 2.47866 10.1562H1.95312C1.64232 10.1562 1.34425 10.2797 1.12448 10.4995C0.904715 10.7193 0.78125 11.0173 0.78125 11.3281C0.78125 11.6389 0.904715 11.937 1.12448 12.1568C1.34425 12.3765 1.64232 12.5 1.95312 12.5H2.53579C2.81235 13.4043 3.37183 14.1959 4.13194 14.7585C4.89204 15.321 5.81262 15.6248 6.75825 15.625H7.30425C7.88397 15.625 8.45802 15.5108 8.99362 15.289C9.52922 15.0671 10.0159 14.742 10.4258 14.3321C10.8357 13.9221 11.1609 13.4355 11.3827 12.8999C11.6046 12.3643 11.7188 11.7902 11.7188 11.2105C11.7195 10.4557 11.5146 9.71503 11.1261 9.06797L11.2858 8.96152C11.6454 8.72164 12.068 8.59363 12.5002 8.59363C12.9324 8.59363 13.355 8.72164 13.7146 8.96152L13.8739 9.06772C13.4853 9.71486 13.2804 10.4557 13.2812 11.2105C13.2812 12.3813 13.7463 13.5041 14.5742 14.332C15.4021 15.1599 16.525 15.625 17.6958 15.625H18.2417C19.1874 15.6248 20.108 15.3211 20.8681 14.7585C21.6282 14.196 22.1877 13.4043 22.4642 12.5H23.0469C23.3577 12.5 23.6557 12.3765 23.8755 12.1568C24.0953 11.937 24.2188 11.6389 24.2188 11.3281C24.2188 11.0173 24.0953 10.7193 23.8755 10.4995C23.6557 10.2797 23.3577 10.1562 23.0469 10.1562ZM1.95312 11.7188C1.84952 11.7188 1.75017 11.6776 1.67691 11.6043C1.60366 11.5311 1.5625 11.4317 1.5625 11.3281C1.5625 11.2245 1.60366 11.1252 1.67691 11.0519C1.75017 10.9787 1.84952 10.9375 1.95312 10.9375H2.35352C2.34766 11.0278 2.34375 11.1187 2.34375 11.2105C2.34385 11.3803 2.35363 11.55 2.37305 11.7188H1.95312ZM10.2607 13.3223C9.92418 13.7925 9.48047 14.1757 8.96634 14.4403C8.45222 14.7049 7.88246 14.8432 7.30425 14.8438H6.75825C5.93837 14.8435 5.14266 14.5661 4.5003 14.0566C3.85793 13.5471 3.40662 12.8355 3.21963 12.0372C3.21855 12.0316 3.21733 12.026 3.21602 12.0205C3.1555 11.7548 3.12497 11.4831 3.125 11.2105C3.12602 10.3096 3.48435 9.44591 4.12138 8.80888C4.75841 8.17185 5.62211 7.81352 6.523 7.8125H7.5395C8.44039 7.81352 9.3041 8.17185 9.94112 8.80888C10.5781 9.44591 10.9365 10.3096 10.9375 11.2105C10.9388 11.968 10.7021 12.7067 10.2607 13.3223ZM12.5 7.8125C11.9135 7.81256 11.3402 7.98625 10.8522 8.31167L10.6629 8.43784C10.3357 8.0693 9.94628 7.76112 9.5124 7.52739L9.8291 7.42188H15.1709L15.4875 7.52739C15.0536 7.76112 14.6642 8.0693 14.337 8.43784L14.1479 8.31177C13.6602 7.98574 13.0866 7.81196 12.5 7.8125ZM21.784 12.0205C21.7827 12.026 21.7814 12.0316 21.7804 12.0372C21.5934 12.8355 21.1421 13.5471 20.4997 14.0566C19.8574 14.5661 19.0616 14.8435 18.2417 14.8438H17.6958C16.7322 14.8437 15.808 14.4609 15.1267 13.7796C14.4453 13.0982 14.0625 12.1741 14.0625 11.2105C14.0635 10.3096 14.4219 9.44591 15.0589 8.80888C15.6959 8.17185 16.5596 7.81352 17.4605 7.8125H18.477C19.3779 7.81352 20.2416 8.17185 20.8786 8.80888C21.5156 9.44591 21.874 10.3096 21.875 11.2105C21.875 11.4831 21.8445 11.7548 21.784 12.0205ZM23.0469 11.7188H22.627C22.6464 11.55 22.6561 11.3803 22.6562 11.2105C22.6562 11.1187 22.6522 11.0278 22.6465 10.9375H23.0469C23.1505 10.9375 23.2498 10.9787 23.3231 11.0519C23.3963 11.1252 23.4375 11.2245 23.4375 11.3281C23.4375 11.4317 23.3963 11.5311 23.3231 11.6043C23.2498 11.6776 23.1505 11.7188 23.0469 11.7188Z" fill="black"/>
</svg>
