<svg width="10" height="11" viewBox="0 0 10 11" fill="none" xmlns="http://www.w3.org/2000/svg">
<path d="M5.08592 0.843811C3.54003 0.843811 2.09406 1.60562 1.21764 2.88235C1.17438 2.94568 1.13238 3.01014 1.09234 3.07538C1.03589 3.16693 1.06431 3.2875 1.15626 3.34395C1.24782 3.40083 1.36794 3.37222 1.42498 3.27988C1.46199 3.21997 1.50047 3.16088 1.53997 3.10287C2.34334 1.93288 3.6688 1.23441 5.08592 1.23441C7.45524 1.23441 9.38279 3.16195 9.38279 5.53127C9.38279 7.90059 7.45524 9.82819 5.08592 9.82819C2.71665 9.82819 0.789053 7.90059 0.789053 5.53127C0.789053 5.42331 0.701646 5.33595 0.59373 5.33595C0.485765 5.33595 0.398407 5.42331 0.398407 5.53127C0.398407 8.11613 2.50126 10.2188 5.08592 10.2188C7.67078 10.2188 9.77343 8.11618 9.77343 5.53127C9.77343 2.94646 7.67078 0.843811 5.08592 0.843811Z" fill="black"/>
</svg>
