<svg width="25" height="25" viewBox="0 0 25 25" fill="none" xmlns="http://www.w3.org/2000/svg">
<path d="M24.5722 12.1198H22.4572C23.3365 10.1236 23.2414 8.50761 22.9087 7.41446C22.3384 5.46579 20.4135 3.35077 17.5618 3.35077C16.8013 3.35077 16.0409 3.49335 15.2567 3.77853C13.9021 4.27758 12.999 4.82415 12.5951 5.10932C12.1911 4.82415 11.3118 4.27758 9.93346 3.77853C9.14924 3.49335 8.36502 3.35077 7.62833 3.35077C4.77662 3.35077 2.85171 5.46579 2.28137 7.41446C1.94867 8.57891 1.82985 10.3375 2.94677 12.5475H0.380228C0.16635 12.5475 0 12.7139 0 12.9278C0 13.1416 0.16635 13.308 0.380228 13.308H3.39829C3.51711 13.5219 3.6597 13.7358 3.82605 13.9496C6.29753 17.5143 11.6683 21.3878 12.6426 21.6255V21.6493C12.6426 21.6493 12.6664 21.6493 12.6901 21.6255C12.7139 21.6255 12.7376 21.6255 12.7614 21.6255V21.6017C13.5932 21.1977 18.75 17.8707 21.4591 13.9259C21.7205 13.5694 21.9344 13.2129 22.1245 12.8565H24.6198C24.8337 12.8565 25 12.6901 25 12.4762C25 12.2624 24.7861 12.1198 24.5722 12.1198ZM20.77 13.5219C18.251 17.2053 13.6169 20.1759 12.6188 20.8175C11.597 20.1759 6.98669 17.1816 4.44392 13.5219C4.39639 13.4506 4.34886 13.3793 4.30133 13.308H7.79468C7.93726 13.308 8.07985 13.2367 8.15114 13.0941L9.74335 9.95723L12.2386 16.3498C12.2861 16.4924 12.4525 16.5875 12.5951 16.5875C12.5951 16.5875 12.5951 16.5875 12.6188 16.5875C12.7852 16.5875 12.9278 16.4686 12.9753 16.3023L15.1616 8.81655L16.326 12.5951C16.3736 12.7377 16.4924 12.8327 16.635 12.8565C16.7776 12.8802 16.9202 12.8089 17.0152 12.6901L17.942 11.3356L18.7262 12.6664C18.7975 12.7852 18.9163 12.8565 19.0589 12.8565H21.1977C21.0551 13.0941 20.9125 13.308 20.77 13.5219ZM21.6255 12.1198H19.2966L18.3222 10.4563C18.2509 10.3375 18.1321 10.2662 17.9895 10.2662C17.847 10.2662 17.7281 10.3137 17.6568 10.4325L16.8489 11.6207L15.5418 7.36693C15.4943 7.20058 15.3279 7.10552 15.1616 7.08176C14.9952 7.08176 14.8289 7.20058 14.7814 7.36693L12.5713 14.9953L10.1711 8.86408C10.1236 8.72149 9.98099 8.62643 9.8384 8.62643C9.67205 8.62643 9.55323 8.69773 9.48194 8.84031L7.60456 12.5238H3.82605C2.87548 10.789 2.61407 9.12548 3.04183 7.62834C3.54087 5.94107 5.18061 4.13499 7.65209 4.13499C8.31749 4.13499 9.00665 4.27758 9.69582 4.51522C11.4306 5.15685 12.3574 5.89354 12.3812 5.89354C12.5238 6.01237 12.7139 6.01237 12.8565 5.89354C12.8565 5.89354 13.7833 5.15685 15.5418 4.51522C16.231 4.25381 16.9202 4.13499 17.5856 4.13499C20.0333 4.13499 21.6968 5.94107 22.1958 7.62834C22.5998 9.00666 22.3859 10.5276 21.6255 12.1198Z" fill="black"/>
</svg>
