<svg width="25" height="25" viewBox="0 0 25 25" fill="none" xmlns="http://www.w3.org/2000/svg">
<path d="M9.58371 17.0825H7.91729V15.4161C7.91729 15.186 7.73076 14.9995 7.50068 14.9995H5.83426C5.60419 14.9995 5.41765 15.186 5.41765 15.4161V17.0825H3.75123C3.52116 17.0825 3.33463 17.2691 3.33463 17.4991V19.1656C3.33463 19.3956 3.52116 19.5822 3.75123 19.5822H5.41765V21.2486C5.41765 21.4787 5.60419 21.6652 5.83426 21.6652H7.50068C7.73076 21.6652 7.91729 21.4787 7.91729 21.2486V19.5822H9.58371C9.81379 19.5822 10.0003 19.3956 10.0003 19.1656V17.4991C10.0003 17.2691 9.81379 17.0825 9.58371 17.0825ZM9.16711 18.749H7.50068C7.27061 18.749 7.08408 18.9355 7.08408 19.1656V20.832H6.25087V19.1656C6.25087 18.9355 6.06433 18.749 5.83426 18.749H4.16784V17.9158H5.83426C6.06433 17.9158 6.25087 17.7292 6.25087 17.4991V15.8327H7.08408V17.4991C7.08408 17.7292 7.27061 17.9158 7.50068 17.9158H9.16711V18.749Z" fill="black"/>
<path d="M24.9564 17.5712C24.6369 14.7004 21.9406 12.0145 19.0673 11.7083C18.8233 11.6814 18.5779 11.6675 18.3324 11.6667H13.7498V10.0002H12.9165V9.16704C12.9165 8.2467 12.1705 7.50062 11.2501 7.50062H9.16709C8.7069 7.50062 8.33388 7.1276 8.33388 6.6674C8.33388 6.20721 8.7069 5.83419 9.16709 5.83419H15.8328C16.7531 5.83419 17.4992 5.0881 17.4992 4.16777C17.4992 3.24743 16.7531 2.50134 15.8328 2.50134H13.7498C13.2896 2.50134 12.9165 2.12833 12.9165 1.66813V0.00170898H12.0833V1.66813C12.0833 2.58847 12.8294 3.33456 13.7498 3.33456H15.8328C16.293 3.33456 16.666 3.70757 16.666 4.16777C16.666 4.62796 16.293 5.00098 15.8328 5.00098H9.16709C8.24676 5.00098 7.50067 5.74707 7.50067 6.6674C7.50067 7.58774 8.24676 8.33383 9.16709 8.33383H11.2501C11.7103 8.33383 12.0833 8.70685 12.0833 9.16704V10.0002H11.2501V11.6667H6.66746C6.42166 11.6672 6.17602 11.6812 5.93173 11.7083C3.05716 12.0166 0.362552 14.7025 0.0438489 17.5733C-0.374683 21.2308 2.25097 24.5351 5.90851 24.9536C7.39787 25.1241 8.90119 24.7875 10.1757 23.9983C10.7244 23.639 11.3516 23.4174 12.0042 23.3521C12.3265 23.3266 12.6503 23.3255 12.9728 23.3488C13.6357 23.4129 14.273 23.6371 14.83 24.002C17.9616 25.9374 22.0692 24.9676 24.0045 21.836C24.792 20.5618 25.1273 19.0594 24.9564 17.5712ZM12.0833 10.8335H12.9165V11.6667H12.0833V10.8335ZM22.6797 22.221C20.7962 24.3277 17.6727 24.7799 15.2691 23.2937C14.5979 22.8567 13.8301 22.5902 13.0324 22.5176C12.8565 22.5048 12.6791 22.4984 12.4999 22.4984C12.3104 22.4984 12.125 22.5063 11.9383 22.5209C11.1528 22.5962 10.3971 22.86 9.73534 23.29C6.99606 24.9848 3.40153 24.1381 1.70668 21.3988C1.01673 20.2837 0.722708 18.9686 0.872061 17.6658C1.14619 15.1987 3.55167 12.8023 6.0213 12.537C6.23586 12.513 6.45155 12.5006 6.66746 12.4999H18.3324C18.5483 12.5 18.764 12.5116 18.9786 12.5345C21.4478 12.7998 23.8528 15.1962 24.1278 17.6633C24.3242 19.3202 23.7964 20.9813 22.6797 22.221Z" fill="black"/>
<path d="M18.3324 14.1663C17.4121 14.1663 16.666 14.9124 16.666 15.8327C16.666 16.7531 17.4121 17.4992 18.3324 17.4992C19.2528 17.4992 19.9989 16.7531 19.9989 15.8327C19.9989 14.9124 19.2528 14.1663 18.3324 14.1663ZM18.3324 16.666C17.8722 16.666 17.4992 16.2929 17.4992 15.8327C17.4992 15.3726 17.8722 14.9995 18.3324 14.9995C18.7926 14.9995 19.1656 15.3726 19.1656 15.8327C19.1656 16.2929 18.7926 16.666 18.3324 16.666Z" fill="black"/>
<path d="M18.3324 19.1656C17.4121 19.1656 16.666 19.9117 16.666 20.832C16.666 21.7523 17.4121 22.4984 18.3324 22.4984C19.2528 22.4984 19.9989 21.7523 19.9989 20.832C19.9989 19.9117 19.2528 19.1656 18.3324 19.1656ZM18.3324 21.6652C17.8722 21.6652 17.4992 21.2922 17.4992 20.832C17.4992 20.3718 17.8722 19.9988 18.3324 19.9988C18.7926 19.9988 19.1656 20.3718 19.1656 20.832C19.1656 21.2922 18.7926 21.6652 18.3324 21.6652Z" fill="black"/>
<path d="M15.4162 16.666C14.4959 16.666 13.7498 17.412 13.7498 18.3324C13.7498 19.2527 14.4959 19.9988 15.4162 19.9988C16.3365 19.9988 17.0826 19.2527 17.0826 18.3324C17.0826 17.412 16.3365 16.666 15.4162 16.666ZM15.4162 19.1656C14.956 19.1656 14.583 18.7926 14.583 18.3324C14.583 17.8722 14.956 17.4992 15.4162 17.4992C15.8764 17.4992 16.2494 17.8722 16.2494 18.3324C16.2494 18.7926 15.8763 19.1656 15.4162 19.1656Z" fill="black"/>
<path d="M21.2487 16.666C20.3283 16.666 19.5822 17.412 19.5822 18.3324C19.5822 19.2527 20.3283 19.9988 21.2487 19.9988C22.169 19.9988 22.9151 19.2527 22.9151 18.3324C22.9151 17.412 22.169 16.666 21.2487 16.666ZM21.2487 19.1656C20.7885 19.1656 20.4155 18.7926 20.4155 18.3324C20.4155 17.8722 20.7885 17.4992 21.2487 17.4992C21.7089 17.4992 22.0819 17.8722 22.0819 18.3324C22.0819 18.7926 21.7088 19.1656 21.2487 19.1656Z" fill="black"/>
</svg>
