<svg width="25" height="25" viewBox="0 0 25 25" fill="none" xmlns="http://www.w3.org/2000/svg">
<g clip-path="url(#clip0)">
<path d="M0.345155 13.1704C4.35907 15.6686 9.60843 18.9359 12.1127 20.4946C12.35 20.6421 12.6498 20.6426 12.8871 20.4946C16.6532 18.1506 20.3255 15.8648 24.6547 13.1704C25.1161 12.8833 25.1132 12.2124 24.6547 11.9272L23.5092 11.2144C13.7921 17.2622 30.6924 6.74302 13.6611 17.3437C12.9506 17.7861 12.0497 17.7866 11.3388 17.3437C-7.20006 5.80469 13.8872 18.9299 1.49066 11.2144L0.345155 11.9272C-0.116271 12.2144 -0.113341 12.8853 0.345155 13.1704Z" fill="white"/>
<path d="M0.345921 8.77588C6.08342 12.3467 8.13611 13.6245 12.1135 16.1001C12.3508 16.2476 12.6506 16.248 12.8879 16.1001C21.2075 10.9218 15.6681 14.3697 24.6555 8.77588C25.113 8.49121 25.1164 7.82324 24.6589 7.53467L12.8913 0.112793C12.6526 -0.0375977 12.3488 -0.0375977 12.1101 0.112793L0.342504 7.53467C-0.115016 7.82324 -0.111598 8.49121 0.345921 8.77588Z" fill="white"/>
<path d="M24.6547 16.3218L23.5092 15.6089L13.6611 21.7383C12.9506 22.1807 12.0497 22.1812 11.3388 21.7383L1.49066 15.6089L0.345155 16.3218C-0.116271 16.6089 -0.113341 17.2798 0.345155 17.5649L12.1127 24.8892C12.35 25.0366 12.6498 25.0371 12.8871 24.8892L24.6547 17.5649C25.1161 17.2778 25.1132 16.6069 24.6547 16.3218Z" fill="white"/>
</g>
<defs>
<clipPath id="clip0">
<rect width="25" height="25" fill="white"/>
</clipPath>
</defs>
</svg>
