<svg width="20" height="20" viewBox="0 0 20 20" fill="none" xmlns="http://www.w3.org/2000/svg">
<path d="M8.07349 10.0042L15.5554 2.52195C15.7615 2.31642 15.8748 2.04163 15.8748 1.74862C15.8748 1.45545 15.7615 1.18081 15.5554 0.974959L14.8998 0.319675C14.6941 0.113496 14.4192 0 14.1262 0C13.8332 0 13.5585 0.113496 13.3527 0.319675L4.44423 9.22797C4.23756 9.43447 4.12439 9.71041 4.1252 10.0037C4.12439 10.2984 4.2374 10.574 4.44423 10.7807L13.3444 19.6803C13.5502 19.8865 13.8249 20 14.118 20C14.4111 20 14.6857 19.8865 14.8917 19.6803L15.5472 19.025C15.9737 18.5985 15.9737 17.9042 15.5472 17.4779L8.07349 10.0042Z" fill="black"/>
</svg>
