<svg width="26" height="26" viewBox="0 0 26 26" fill="none" xmlns="http://www.w3.org/2000/svg">
<path d="M25.957 8.12147C25.5775 3.94423 22.6208 0.913555 18.9206 0.913555C16.4555 0.913555 14.1983 2.24013 12.9282 4.36625C11.6697 2.21263 9.50505 0.913055 7.07941 0.913055C3.3797 0.913055 0.422528 3.94373 0.0435062 8.12097C0.0135045 8.30548 -0.109503 9.27654 0.264519 10.8601C0.80355 13.1443 2.04862 15.2219 3.86423 16.867L12.9222 25.0869L22.1358 16.8675C23.9514 15.2219 25.1965 13.1448 25.7355 10.8601C26.1095 9.27704 25.9865 8.30598 25.957 8.12147ZM24.7619 10.6311C24.2699 12.7172 23.1293 14.6178 21.4667 16.1239L12.9282 23.7419L4.53627 16.1259C2.87067 14.6168 1.7306 12.7167 1.23808 10.6306C0.884055 9.13203 1.02956 8.28548 1.03006 8.27998L1.03756 8.22948C1.36258 4.56977 3.90323 1.91311 7.07941 1.91311C9.42305 1.91311 11.4862 3.3532 12.4652 5.67083L12.9257 6.76239L13.3863 5.67083C14.3498 3.3887 16.522 1.91361 18.9211 1.91361C22.0968 1.91361 24.6379 4.57027 24.9694 8.27748C24.9704 8.28548 25.116 9.13253 24.7619 10.6311Z" fill="white"/>
</svg>
