<?xml version="1.0" encoding="iso-8859-1"?>
<!-- Generator: Adobe Illustrator 19.0.0, SVG Export Plug-In . SVG Version: 6.00 Build 0)  -->
<svg version="1.1" id="Capa_1" xmlns="http://www.w3.org/2000/svg" xmlns:xlink="http://www.w3.org/1999/xlink" x="0px" y="0px"
	 viewBox="0 0 389.12 389.12" style="enable-background:new 0 0 389.12 389.12;" xml:space="preserve">
<g>
	<circle style="fill:#FFE600;" cx="153.6" cy="259.413" r="81.92"/>
	<path style="fill:#FFE600;" d="M153.6,348.16c-48.934,0-88.747-39.81-88.747-88.747s39.813-88.747,88.747-88.747
		s88.747,39.81,88.747,88.747S202.534,348.16,153.6,348.16z M153.6,184.32c-41.407,0-75.093,33.686-75.093,75.093
		s33.686,75.093,75.093,75.093s75.093-33.686,75.093-75.093S195.007,184.32,153.6,184.32z"/>
</g>
<path style="fill:#EA3457;" d="M146.773,54.653c0-26.412,21.333-47.826,47.753-47.826h41.028c26.373,0,47.753,21.414,47.753,47.826
	v136.494H146.773V54.653z"/>
<path style="fill:#602F75;" d="M283.307,197.973H146.773c-3.773,0-6.827-3.057-6.827-6.827V54.653
	C139.947,24.516,164.434,0,194.526,0h41.027c30.094,0,54.581,24.516,54.581,54.653v136.494
	C290.133,194.917,287.08,197.973,283.307,197.973z M153.6,184.32h122.88V54.653c0-22.607-18.36-40.999-40.926-40.999h-41.028
	c-22.566,0-40.926,18.393-40.926,40.999V184.32z"/>
<path style="fill:#00E7FF;" d="M146.773,191.147h136.533v37.547c0,20.736-15.264,37.547-34.101,37.547h-68.332
	c-18.833,0-34.101-16.852-34.101-37.547V191.147z"/>
<path style="fill:#602F75;" d="M249.207,273.067h-68.335c-22.567,0-40.926-19.907-40.926-44.373v-37.547
	c0-3.77,3.053-6.827,6.827-6.827h136.533c3.773,0,6.827,3.057,6.827,6.827v37.547C290.133,253.16,271.773,273.067,249.207,273.067z
	 M153.6,197.973v30.72c0,16.94,12.233,30.72,27.273,30.72h68.333c15.039,0,27.273-13.78,27.273-30.72v-30.72H153.6z"/>
<path style="fill:#602F75;" d="M187.733,75.093H153.6c-3.773,0-6.827-3.057-6.827-6.827s3.053-6.827,6.827-6.827h34.133
	c3.773,0,6.827,3.057,6.827,6.827S191.507,75.093,187.733,75.093z"/>
<path style="fill:#602F75;" d="M187.733,102.4H153.6c-3.773,0-6.827-3.057-6.827-6.827s3.053-6.827,6.827-6.827h34.133
	c3.773,0,6.827,3.057,6.827,6.827S191.507,102.4,187.733,102.4z"/>
<path style="fill:#602F75;" d="M276.48,75.093h-34.133c-3.773,0-6.827-3.057-6.827-6.827s3.053-6.827,6.827-6.827h34.133
	c3.773,0,6.827,3.057,6.827,6.827S280.253,75.093,276.48,75.093z"/>
<path style="fill:#602F75;" d="M276.48,102.4h-34.133c-3.773,0-6.827-3.057-6.827-6.827s3.053-6.827,6.827-6.827h34.133
	c3.773,0,6.827,3.057,6.827,6.827S280.253,102.4,276.48,102.4z"/>
<path style="fill:#602F75;" d="M187.733,129.707H153.6c-3.773,0-6.827-3.057-6.827-6.827s3.053-6.827,6.827-6.827h34.133
	c3.773,0,6.827,3.057,6.827,6.827S191.507,129.707,187.733,129.707z"/>
<path style="fill:#602F75;" d="M276.48,129.707h-34.133c-3.773,0-6.827-3.057-6.827-6.827s3.053-6.827,6.827-6.827h34.133
	c3.773,0,6.827,3.057,6.827,6.827S280.253,129.707,276.48,129.707z"/>
<path style="fill:#602F75;" d="M187.733,157.013H153.6c-3.773,0-6.827-3.057-6.827-6.827c0-3.77,3.053-6.827,6.827-6.827h34.133
	c3.773,0,6.827,3.057,6.827,6.827C194.56,153.957,191.507,157.013,187.733,157.013z"/>
<g>
	<path style="fill:#602F75;" d="M276.48,157.013h-34.133c-3.773,0-6.827-3.057-6.827-6.827c0-3.77,3.053-6.827,6.827-6.827h34.133
		c3.773,0,6.827,3.057,6.827,6.827C283.307,153.957,280.253,157.013,276.48,157.013z"/>
	<path style="fill:#602F75;" d="M242.34,300.373h-54.6c-45.174,0-81.927-36.26-81.927-80.829v-73.999
		c0-3.77,3.053-6.827,6.827-6.827s6.827,3.057,6.827,6.827v73.999c0,37.04,30.626,67.176,68.273,67.176h54.6
		c37.647,0,68.273-30.136,68.273-67.176v-73.999c0-3.77,3.053-6.827,6.827-6.827s6.827,3.057,6.827,6.827v73.999
		C324.267,264.113,287.514,300.373,242.34,300.373z"/>
	<path style="fill:#602F75;" d="M215.04,384.476c-3.773,0-6.827-3.057-6.827-6.827v-75.093c0-3.77,3.053-6.827,6.827-6.827
		s6.827,3.057,6.827,6.827v75.093C221.867,381.42,218.813,384.476,215.04,384.476z"/>
	<path style="fill:#602F75;" d="M269.653,389.12H160.427c-3.773,0-6.827-3.057-6.827-6.827s3.053-6.827,6.827-6.827h109.227
		c3.773,0,6.827,3.057,6.827,6.827S273.427,389.12,269.653,389.12z"/>
</g>
<g>
</g>
<g>
</g>
<g>
</g>
<g>
</g>
<g>
</g>
<g>
</g>
<g>
</g>
<g>
</g>
<g>
</g>
<g>
</g>
<g>
</g>
<g>
</g>
<g>
</g>
<g>
</g>
<g>
</g>
</svg>
