<svg width="25" height="25" viewBox="0 0 25 25" fill="none" xmlns="http://www.w3.org/2000/svg">
<g clip-path="url(#clip0)">
<path d="M12.5 19.5795C11.4577 19.5795 10.6098 20.4275 10.6098 21.4698C10.6098 22.512 11.4577 23.36 12.5 23.36C12.7026 23.36 12.867 23.1957 12.867 22.9931C12.867 22.7904 12.7026 22.6261 12.5 22.6261C11.8624 22.6261 11.3436 22.1074 11.3436 21.4697C11.3436 20.8321 11.8624 20.3133 12.5 20.3133C13.1377 20.3133 13.6564 20.8321 13.6564 21.4697C13.6564 21.6886 13.5951 21.9016 13.479 22.0855C13.3709 22.2569 13.4222 22.4835 13.5936 22.5916C13.765 22.6997 13.9916 22.6484 14.0997 22.477C14.2898 22.1757 14.3902 21.8274 14.3902 21.4698C14.3902 20.4275 13.5423 19.5795 12.5 19.5795Z" fill="black"/>
<path d="M22.2872 9.17549C22.2872 7.82793 22.0276 6.55884 21.5155 5.40352C21.0248 4.29663 20.3154 3.32021 19.4068 2.50137C17.617 0.88833 15.1642 0 12.5 0C9.83583 0 7.38295 0.88833 5.59316 2.50132C4.68456 3.32017 3.97514 4.29658 3.48452 5.40347C2.97241 6.55879 2.71274 7.82793 2.71274 9.17544C2.71274 10.9371 3.15307 12.7481 3.98803 14.4323C3.74145 14.6805 3.58881 15.0222 3.58881 15.3989C3.58881 16.0741 4.07914 16.6367 4.72241 16.75C4.67182 16.9071 4.64423 17.0744 4.64423 17.248C4.64423 17.4507 4.80854 17.615 5.01117 17.615C5.21381 17.615 5.37812 17.4507 5.37812 17.248C5.37812 16.7549 5.77934 16.3537 6.27245 16.3537C6.656 16.3537 6.99648 16.5975 7.11962 16.9604C7.15092 17.0525 7.16679 17.1494 7.16679 17.248C7.16679 17.7412 6.76557 18.1424 6.27245 18.1424C6.18129 18.1424 6.0915 18.1288 6.00571 18.102C5.8124 18.0417 5.60649 18.1495 5.54614 18.343C5.48574 18.5364 5.5936 18.7421 5.78705 18.8025C5.94374 18.8515 6.10707 18.8763 6.2725 18.8763C6.40986 18.8763 6.54325 18.859 6.67074 18.8268C6.6707 18.8318 6.67035 18.8367 6.67035 18.8417C6.67035 19.8986 7.53022 20.7584 8.58705 20.7584C8.74858 20.7584 8.90536 20.7381 9.05531 20.7003C8.99999 20.9481 8.96986 21.2054 8.96986 21.4697C8.96977 23.4164 10.5534 25 12.5 25C14.4466 25 16.0302 23.4164 16.0302 21.4698C16.0302 21.2055 16.0001 20.9482 15.9448 20.7004C16.0947 20.7382 16.2515 20.7585 16.413 20.7585C17.4699 20.7585 18.3297 19.8986 18.3297 18.8418C18.3297 18.8368 18.3294 18.8319 18.3293 18.8269C18.4568 18.8591 18.5902 18.8764 18.7276 18.8764C19.6253 18.8764 20.3557 18.1459 20.3557 17.2482C20.3557 17.0745 20.3282 16.9073 20.2776 16.7502C20.9208 16.6368 21.4111 16.0743 21.4111 15.399C21.4111 15.0223 21.2585 14.6807 21.0119 14.4324C21.8469 12.7482 22.2872 10.9371 22.2872 9.17549ZM4.32265 15.3989C4.32265 15.0469 4.60908 14.7604 4.96117 14.7604C5.31327 14.7604 5.5997 15.0469 5.5997 15.3989C5.5997 15.751 5.31323 16.0375 4.96117 16.0375C4.60912 16.0375 4.32265 15.751 4.32265 15.3989ZM7.40414 18.8417C7.40414 18.1895 7.93476 17.6589 8.587 17.6589C9.23925 17.6589 9.76986 18.1895 9.76986 18.8417C9.76986 19.494 9.23925 20.0246 8.587 20.0246C7.93476 20.0246 7.40414 19.494 7.40414 18.8417ZM12.5 24.2662C10.958 24.2662 9.70361 23.0117 9.70361 21.4698C9.70361 19.9279 10.958 18.6735 12.5 18.6735C14.0419 18.6735 15.2964 19.9279 15.2964 21.4698C15.2964 23.0117 14.0419 24.2662 12.5 24.2662ZM16.413 20.0246C15.7607 20.0246 15.2301 19.494 15.2301 18.8417C15.2301 18.6284 15.2874 18.4195 15.3957 18.2375C15.4995 18.0634 15.4424 17.8382 15.2683 17.7346C15.0941 17.6309 14.8689 17.688 14.7653 17.8621C14.6351 18.0806 14.5506 18.3229 14.5153 18.5739C13.9434 18.1747 13.2488 17.9396 12.4999 17.9396C11.7511 17.9396 11.0565 18.1747 10.4846 18.574C10.3538 17.6435 9.55292 16.925 8.58695 16.925C8.34042 16.925 8.10488 16.9724 7.88818 17.0575C7.87494 16.9442 7.85116 16.8327 7.81449 16.7246C7.59487 16.0774 6.9957 15.6394 6.31528 15.6215C6.32714 15.549 6.33359 15.4747 6.33359 15.3989C6.33359 14.6422 5.71791 14.0265 4.96117 14.0265C4.84575 14.0265 4.73368 14.041 4.62651 14.068C3.85385 12.4958 3.44658 10.8111 3.44658 9.17549C3.44658 6.72109 4.35873 4.60171 6.08442 3.04648C7.7392 1.55513 10.0176 0.733838 12.5 0.733838C14.9824 0.733838 17.2608 1.55513 18.9155 3.04644C20.6412 4.60166 21.5534 6.72104 21.5534 9.17544C21.5534 10.8111 21.1461 12.4958 20.3734 14.0679C20.2662 14.041 20.1542 14.0265 20.0388 14.0265C19.282 14.0265 18.6663 14.6421 18.6663 15.3989C18.6663 15.4745 18.6727 15.5486 18.6846 15.6209C17.8708 15.6421 17.2041 16.263 17.1109 17.0571C16.8945 16.9722 16.6592 16.925 16.413 16.925C16.2103 16.925 16.046 17.0893 16.046 17.2919C16.046 17.4946 16.2103 17.6589 16.413 17.6589C17.0652 17.6589 17.5958 18.1895 17.5958 18.8417C17.5958 19.494 17.0652 20.0246 16.413 20.0246ZM18.7276 18.1424C18.2345 18.1424 17.8332 17.7413 17.8332 17.2481C17.8332 16.7549 18.2345 16.3537 18.7276 16.3537C19.2207 16.3537 19.6219 16.7549 19.6219 17.2481C19.6219 17.7413 19.2207 18.1424 18.7276 18.1424ZM20.0388 16.0375C19.6867 16.0375 19.4002 15.751 19.4002 15.3989C19.4002 15.0469 19.6867 14.7604 20.0388 14.7604C20.3908 14.7604 20.6773 15.0469 20.6773 15.3989C20.6773 15.751 20.3909 16.0375 20.0388 16.0375Z" fill="black"/>
</g>
<defs>
<clipPath id="clip0">
<rect width="25" height="25" fill="white"/>
</clipPath>
</defs>
</svg>
