<svg width="25" height="25" viewBox="0 0 25 25" fill="none" xmlns="http://www.w3.org/2000/svg">
<g clip-path="url(#clip0)">
<path d="M12.1624 0C16.4867 0 20.7442 1.99158 20.7442 6.75527C20.7442 11.1482 15.7102 12.8376 14.6291 14.425C13.8175 15.6058 14.0886 17.2649 11.8586 17.2649C10.406 17.2649 9.6964 16.0833 9.6964 15.0022C9.6964 10.9792 15.6074 10.0687 15.6074 6.75607C15.6074 4.93271 14.3939 3.85161 12.3657 3.85161C8.04127 3.85161 9.72988 8.30995 6.4547 8.30995C5.27235 8.30995 4.25742 7.60038 4.25742 6.2498C4.25663 2.93635 8.03967 0 12.1624 0ZM11.9941 19.4582C13.5121 19.4582 14.7646 20.7067 14.7646 22.2295C14.7646 23.7523 13.5145 25.0008 11.9941 25.0008C10.4737 25.0008 9.22282 23.7539 9.22282 22.2295C9.22282 20.7075 10.4737 19.4582 11.9941 19.4582Z" fill="white"/>
</g>
<defs>
<clipPath id="clip0">
<rect width="25" height="25" fill="white"/>
</clipPath>
</defs>
</svg>
