<svg width="16" height="16" viewBox="0 0 16 16" fill="none" xmlns="http://www.w3.org/2000/svg">
<g clip-path="url(#clip0)">
<path d="M8.46638 7.79846V0.449719C8.46638 0.199875 8.2665 0 8.01666 0C7.76681 0 7.56694 0.199875 7.56694 0.449719V7.79846C6.52426 8.00833 5.73475 8.93108 5.73475 10.0371C5.73475 11.143 6.52426 12.0658 7.56694 12.2757V15.547C7.56694 15.7968 7.76681 15.9967 8.01666 15.9967C8.2665 15.9967 8.46638 15.7968 8.46638 15.547V12.2757C9.50906 12.0658 10.2986 11.143 10.2986 10.0371C10.2986 8.93442 9.51239 8.00833 8.46638 7.79846ZM8.01666 11.4195C7.2538 11.4195 6.63419 10.7999 6.63419 10.0371C6.63419 9.2742 7.2538 8.65459 8.01666 8.65459C8.77951 8.65459 9.39913 9.2742 9.39913 10.0371C9.39913 10.7999 8.77951 11.4195 8.01666 11.4195Z" fill="#363636"/>
<path d="M2.95981 4.02748V0.449719C2.95981 0.199875 2.75994 0 2.5101 0C2.26025 0 2.06038 0.199875 2.06038 0.449719V4.02748C1.01769 4.23735 0.228188 5.16011 0.228188 6.26608C0.228188 7.37206 1.01769 8.29482 2.06038 8.50469V15.547C2.06038 15.7968 2.26025 15.9967 2.5101 15.9967C2.75994 15.9967 2.95981 15.7968 2.95981 15.547V8.50135C4.0025 8.29148 4.792 7.36873 4.792 6.26275C4.792 5.15678 4.0025 4.23735 2.95981 4.02748ZM2.5101 7.64855C1.74724 7.64855 1.12763 7.02894 1.12763 6.26608C1.12763 5.50323 1.74724 4.88362 2.5101 4.88362C3.27295 4.88362 3.89256 5.50323 3.89256 6.26608C3.89256 7.02894 3.26962 7.64855 2.5101 7.64855Z" fill="#363636"/>
<path d="M13.9396 4.02748V0.449719C13.9396 0.199875 13.7397 0 13.4899 0C13.2401 0 13.0402 0.199875 13.0402 0.449719V4.02748C11.9975 4.23735 11.208 5.16011 11.208 6.26608C11.208 7.37206 11.9975 8.29482 13.0402 8.50469V15.5503C13.0402 15.8001 13.2401 16 13.4899 16C13.7397 16 13.9396 15.8001 13.9396 15.5503V8.50135C14.9823 8.29148 15.7718 7.36873 15.7718 6.26275C15.7718 5.15678 14.9856 4.23735 13.9396 4.02748ZM13.4899 7.64855C12.727 7.64855 12.1074 7.02894 12.1074 6.26608C12.1074 5.50323 12.727 4.88362 13.4899 4.88362C14.2528 4.88362 14.8724 5.50323 14.8724 6.26608C14.8724 7.02894 14.2528 7.64855 13.4899 7.64855Z" fill="#363636"/>
</g>
<defs>
<clipPath id="clip0">
<rect width="16" height="16" fill="white"/>
</clipPath>
</defs>
</svg>
