<svg width="25" height="25" viewBox="0 0 25 25" fill="none" xmlns="http://www.w3.org/2000/svg">
<g clip-path="url(#clip0)">
<path d="M25 9.37499H20.7548L16.2949 1.94168C16.0737 1.57243 15.5937 1.45188 15.223 1.6739C14.8529 1.89592 14.7332 2.37578 14.9552 2.74582L18.9327 9.37499H6.06736L10.0449 2.74576C10.2669 2.37573 10.1471 1.89587 9.77707 1.67385C9.40551 1.45182 8.92717 1.57238 8.70515 1.94163L4.24522 9.37493H-3.8147e-06V10.9374H1.69563L3.68041 21.5248C3.88791 22.6333 4.85684 23.4375 5.98452 23.4375H19.0155C20.1432 23.4375 21.1121 22.6333 21.3188 21.5255L23.3043 10.9374H25C25 10.9374 25 9.37499 25 9.37499ZM19.783 21.2379C19.7144 21.6072 19.3916 21.875 19.0155 21.875H5.98452C5.60838 21.875 5.28568 21.6072 5.21625 21.2372L3.28486 10.9374H21.7152L19.783 21.2379Z" fill="white"/>
</g>
<defs>
<clipPath id="clip0">
<rect width="25" height="25" fill="white"/>
</clipPath>
</defs>
</svg>
