<?xml version="1.0" encoding="UTF-8"?>
<svg xmlns="http://www.w3.org/2000/svg" viewBox="0 0 512 512" width="512" height="512"><g id="Outline"><path d="M368.86,80H496V64H368.86a24.014,24.014,0,0,1-12.345-3.421l-24.8-14.88a40.013,40.013,0,0,0-19.776-5.672,25.284,25.284,0,0,0-10.733-20.019,22.592,22.592,0,0,0-17.835-3.456,23.113,23.113,0,0,0-10.98,5.913,23.977,23.977,0,0,0-32.375-.348A24.006,24.006,0,0,0,200,40H176a8,8,0,0,0-5.657,2.343l-16,16a8,8,0,0,0,0,11.314L164.687,80,154.343,90.343a8,8,0,0,0,0,11.314L164.687,112l-10.344,10.343a8,8,0,0,0,0,11.314l16,16A8,8,0,0,0,176,152h24.064A25.281,25.281,0,0,0,210.8,171.992a22.556,22.556,0,0,0,17.836,3.456A23.21,23.21,0,0,0,232,174.416V242a119.372,119.372,0,0,0-16,8.511V248H200v14.608a120.68,120.68,0,0,0-19.4,22.2,87.816,87.816,0,0,0-88.628,18.846l10.917,11.7A72.054,72.054,0,0,1,120,303.5v.5h16v-6.2a71.949,71.949,0,0,1,65.911,18.323,111.967,111.967,0,0,0-17.256,6.389,55.993,55.993,0,0,0-79.522,14.828,87.593,87.593,0,0,0-20.984,6.529,71.833,71.833,0,0,1,10.215-19.028l-12.8-9.6a87.76,87.76,0,0,0-16.73,40.6A87.812,87.812,0,0,0,35.742,400H24a8,8,0,0,0-8,8,88.1,88.1,0,0,0,88,88H352V480H104a72.108,72.108,0,0,1-71.559-64H296v32a24,24,0,0,0,48,0,8,8,0,0,1,16,0v24a24,24,0,0,0,48,0V416h71.563a71.75,71.75,0,0,1-63.991,63.607l1.66,15.914A87.747,87.747,0,0,0,496,408a8,8,0,0,0-8-8H444.685A88.3,88.3,0,0,0,360,336a87.347,87.347,0,0,0-45.279,12.532,112.46,112.46,0,0,0-9.488-9.273c-.815-.705-1.653-1.376-2.486-2.055A104.038,104.038,0,0,1,392,325.027V336h16v-4.278A103.942,103.942,0,0,1,442,360h-2v16h12.29a104.488,104.488,0,0,1,6.307,14.84l15.166-5.1a119.862,119.862,0,0,0-82-77.467,120.206,120.206,0,0,0-65.4-66.989l-6.183,14.757A103.87,103.87,0,0,1,336,264.35V280h16v-3.061a104.174,104.174,0,0,1,20.633,27.743A120.958,120.958,0,0,0,360,304c-2.051,0-4.1.07-6.138.175A88.3,88.3,0,0,0,312,270.061V200h8V184h-8V151.971a40.014,40.014,0,0,0,19.716-5.671l6.38-3.829.17-.1.125-.075,18.124-10.876A24.014,24.014,0,0,1,368.86,128H496V112H368.86a40.021,40.021,0,0,0-20.574,5.7l-24.8,14.88A24.014,24.014,0,0,1,311.14,136H280V120h24V104H280v-1.481L288.517,88H304V72h-6.1l9.385-16h3.852a24.009,24.009,0,0,1,12.34,3.418L348.286,74.3A40.021,40.021,0,0,0,368.86,80ZM256,32a8.043,8.043,0,0,1,7.143,4.39L248,62.205V40A8.009,8.009,0,0,1,256,32Zm-32,0a8.047,8.047,0,0,1,8,8V89.481l-16,27.276V72h8V56h-8V40A8.009,8.009,0,0,1,224,32ZM179.313,56H200V72H179.314l-8-8Zm0,32H200v16H179.314l-8-8Zm-8,40,8-8H200v16H179.313Zm53.81,31.837a6.64,6.64,0,0,1-5.316-1.066c-3.835-2.614-4.969-8.411-2.478-12.658l64.64-110.194c2.07-3.528,6.72-5.08,10.224-2.69,3.835,2.614,4.969,8.411,2.478,12.658l-64.641,110.2A7.7,7.7,0,0,1,225.123,159.837ZM264,304.67V316.7a112.082,112.082,0,0,0-16-3.529V232h8V216h-8V157.071l16-27.276Zm-43.616,7.958c-.121-.149-.239-.3-.361-.449A72.145,72.145,0,0,1,232,298.338V312A111.945,111.945,0,0,0,220.384,312.628ZM232,259.741v18.5a88.27,88.27,0,0,0-23.434,22.382,88.4,88.4,0,0,0-13.157-9.126A104.817,104.817,0,0,1,232,259.741Zm-63.323,71.907a111.474,111.474,0,0,0-9.91,7.611c-1.386,1.2-2.731,2.434-4.05,3.693a86.556,86.556,0,0,0-27.084-6.658,39.942,39.942,0,0,1,41.044-4.646ZM120.4,352a71.483,71.483,0,0,1,22.87,3.7,112.217,112.217,0,0,0-9.226,13.988,55.794,55.794,0,0,0-30.044.784V360H88v16h3.591a56.017,56.017,0,0,0-21.773,24h-17.3A72.243,72.243,0,0,1,120.4,352ZM88.412,400a39.947,39.947,0,0,1,38.762-15.419A111.178,111.178,0,0,0,122.609,400ZM256,376V364.629A64.317,64.317,0,0,1,291.31,400H273.568a48,48,0,0,0-83.136,0H172.69a64.451,64.451,0,0,1,19.124-25.8A63.239,63.239,0,0,1,232,360a65.621,65.621,0,0,1,8,.491V376Zm-45.163,24a31.992,31.992,0,0,1,42.326,0ZM392,472a8,8,0,0,1-16,0V448a24,24,0,0,0-48,0,8,8,0,0,1-16,0V416h80Zm-53.257-81.884A40,40,0,0,1,392,400H341.391Q340.293,394.987,338.743,390.116ZM360,352a71.58,71.58,0,0,1,8,.464V360h16v-3.85A72.35,72.35,0,0,1,427.894,400h-17.3a55.97,55.97,0,0,0-77.843-24.91,112.215,112.215,0,0,0-8.007-13.881A71.479,71.479,0,0,1,360,352Zm-35.027,48H308.309a79.995,79.995,0,0,0-152.618,0H139.027a96.157,96.157,0,0,1,30.206-48.64q3.273-2.831,6.767-5.339V352h16V336.749A96.016,96.016,0,0,1,324.973,400ZM280,322.808v-10.8a40.282,40.282,0,0,1,10.017,1.254A39.393,39.393,0,0,1,300,317.349c.786.453,1.553.946,2.311,1.457a119.187,119.187,0,0,0-13.553,8.643Q284.479,324.932,280,322.808ZM335.79,306.5a120.627,120.627,0,0,0-17.217,4.914c-.669-.635-1.348-1.26-2.048-1.861A55.762,55.762,0,0,0,280,296V280A72.205,72.205,0,0,1,335.79,306.5ZM296,152V265.487A87.519,87.519,0,0,0,280,264V152Z"/><rect x="120" y="432" width="16" height="16"/><rect x="432" y="432" width="16" height="16"/><rect x="152" y="448" width="16" height="16"/><rect x="328" y="80" width="16" height="16"/></g></svg>
