<svg width="25" height="25" viewBox="0 0 25 25" fill="none" xmlns="http://www.w3.org/2000/svg">
<g clip-path="url(#clip0)">
<path d="M22.6385 12.5011C22.6385 17.2572 18.9903 21.1729 14.3448 21.6043C14.3019 21.3811 14.2508 21.1504 14.1787 20.9024C14.1629 20.843 14.005 20.3131 13.7179 19.651C17.5638 19.5315 20.6551 16.3748 20.6551 12.4996C20.6551 8.62445 17.5638 5.46929 13.7179 5.34829C14.0058 4.68238 14.1644 4.14951 14.1802 4.08938C14.2508 3.84511 14.3019 3.61588 14.3448 3.39491C18.9888 3.82933 22.6385 7.74509 22.6385 12.5011ZM2.62754 7.03785C2.48549 8.80784 2.40282 10.5831 2.3705 12.3568H2.36148C2.36298 12.4042 2.36599 12.4523 2.36599 12.4996C2.36599 12.5462 2.36298 12.5951 2.36148 12.6409H2.3705C2.40282 14.4162 2.48399 16.1914 2.62754 17.9599C2.99883 22.5934 6.64101 25.6712 10.2095 24.8722C10.3651 24.8407 10.5297 24.8392 10.6763 24.7783C11.5451 24.4183 12.2659 23.7441 13.0686 23.2481C14.09 22.6062 11.8863 17.164 10.5192 17.8675C10.0141 18.132 8.61918 19.1617 8.0585 19.2391C7.5587 19.309 7.16562 18.6468 7.11676 18.0336C6.98524 16.4184 7.10324 14.3538 7.11451 12.6394H7.11676C7.11676 12.5936 7.11526 12.5432 7.11526 12.4981C7.11526 12.4515 7.11676 12.4004 7.11676 12.3553H7.11376C7.10248 10.6417 6.98449 8.57785 7.11601 6.96194C7.16487 6.35015 7.55794 5.6865 8.05775 5.75715C8.61843 5.83531 10.0141 6.86574 10.5184 7.12804C11.8848 7.83228 14.09 2.38704 13.0678 1.74819C12.2659 1.25064 11.5451 0.576467 10.6755 0.21796C10.529 0.157082 10.3644 0.154827 10.2088 0.124012C6.64026 -0.671166 2.99883 2.40583 2.62754 7.03785ZM9.2197 14.5146H12.4042L12.5755 13.7097H10.544C10.6222 13.6135 10.7108 13.53 10.8101 13.4564C10.9108 13.3827 11.0927 13.2655 11.3557 13.1024L11.7766 12.8431C12.1321 12.6251 12.3952 12.4267 12.5695 12.2486C12.8318 11.9825 12.9964 11.6759 13.0701 11.3324C13.1663 10.8822 13.0979 10.523 12.8656 10.2494C12.6311 9.9773 12.2696 9.84051 11.7781 9.84051C11.1565 9.84051 10.674 10.0728 10.332 10.538C10.1524 10.7807 10.0119 11.1002 9.91492 11.4963H10.8033C10.8679 11.2355 10.9416 11.0431 11.025 10.9243C11.1701 10.7176 11.382 10.6131 11.6593 10.6131C11.863 10.6131 12.0058 10.6785 12.0862 10.8093C12.1667 10.9393 12.1877 11.1039 12.1434 11.2993C12.093 11.5406 11.9495 11.7623 11.718 11.9675C11.5654 12.0975 11.2467 12.314 10.7627 12.6154C10.2035 12.9618 9.82623 13.2888 9.63082 13.5999C9.4339 13.8758 9.29787 14.1802 9.2197 14.5146ZM16.4657 12.798H15.9389L16.5582 9.89237H15.5323L13.2242 12.7161L13.0528 13.5143H14.8934L14.6822 14.5154H15.5759L15.7871 13.5143H16.3139L16.4657 12.798ZM13.8803 12.798L15.4699 10.789L15.0445 12.798H13.8803Z" fill="white"/>
</g>
<defs>
<clipPath id="clip0">
<rect width="25" height="25" fill="white"/>
</clipPath>
</defs>
</svg>
