<svg width="25" height="25" viewBox="0 0 25 25" fill="none" xmlns="http://www.w3.org/2000/svg">
<path d="M10.9375 4.29688H5.46876C5.3608 4.29688 5.27344 4.38423 5.27344 4.4922V10.3516C5.27344 10.4596 5.3608 10.5469 5.46876 10.5469C5.57673 10.5469 5.66408 10.4595 5.66408 10.3516V4.68752H10.7422V10.3516C10.7422 10.4595 10.8296 10.5469 10.9375 10.5469C11.0455 10.5469 11.1328 10.4595 11.1328 10.3516V4.4922C11.1328 4.38423 11.0455 4.29688 10.9375 4.29688Z" fill="black"/>
<path d="M6.25 0C6.14203 0 6.05467 0.0873583 6.05467 0.195323V4.10154C6.05467 4.20951 6.14203 4.29687 6.25 4.29687C6.35796 4.29687 6.44532 4.20951 6.44532 4.10159V0.195323C6.44532 0.0873583 6.35796 0 6.25 0Z" fill="black"/>
<path d="M10.1562 0H6.24995C6.14198 0 6.05463 0.0873583 6.05463 0.195323C6.05463 0.303288 6.14198 0.390646 6.24995 0.390646H10.1562C10.2642 0.390646 10.3515 0.303288 10.3515 0.195323C10.3515 0.0873583 10.2642 0 10.1562 0Z" fill="black"/>
<path d="M10.1562 0C10.0482 0 9.96089 0.0873583 9.96089 0.195323V4.10154C9.96089 4.20951 10.0483 4.29687 10.1562 4.29687C10.2642 4.29687 10.3515 4.20951 10.3515 4.10159V0.195323C10.3515 0.0873583 10.2642 0 10.1562 0Z" fill="black"/>
<path d="M7.81249 1.56244H7.03125C6.92328 1.56244 6.83592 1.64985 6.83592 1.75776V2.53905C6.83592 2.64702 6.92328 2.73438 7.03125 2.73438H7.81249C7.92045 2.73438 8.00781 2.64702 8.00781 2.53905V1.75776C8.00781 1.6498 7.92045 1.56244 7.81249 1.56244ZM7.61721 2.34378H7.22657V1.95313H7.61721V2.34378Z" fill="black"/>
<path d="M9.37497 1.56244H8.59373C8.48577 1.56244 8.39841 1.64985 8.39841 1.75776V2.53905C8.39841 2.64702 8.48577 2.73438 8.59373 2.73438H9.37497C9.48294 2.73438 9.5703 2.64702 9.5703 2.53905V1.75776C9.5703 1.6498 9.48294 1.56244 9.37497 1.56244ZM9.1797 2.34378H8.78905V1.95313H9.1797V2.34378Z" fill="black"/>
<path d="M6.25 10.9374C5.92689 10.9374 5.66408 10.6746 5.66408 10.3515C5.66408 10.2435 5.57673 10.1562 5.46876 10.1562C5.3608 10.1562 5.27344 10.2435 5.27344 10.3515C5.27344 10.8902 5.71155 11.3281 6.25 11.3281C6.35797 11.3281 6.44533 11.2407 6.44533 11.1328C6.44533 11.0248 6.35797 10.9374 6.25 10.9374Z" fill="black"/>
<path d="M10.9375 10.1562C10.8295 10.1562 10.7422 10.2435 10.7422 10.3515C10.7422 10.6746 10.4793 10.9374 10.1562 10.9374C10.0483 10.9374 9.96089 11.0248 9.96089 11.1328C9.96089 11.2407 10.0483 11.3281 10.1562 11.3281C10.6947 11.3281 11.1328 10.8902 11.1328 10.3515C11.1328 10.2435 11.0455 10.1562 10.9375 10.1562Z" fill="black"/>
<path d="M10.1562 10.9374H6.24995C6.14198 10.9374 6.05463 11.0248 6.05463 11.1328C6.05463 11.2407 6.14198 11.3281 6.24995 11.3281H10.1562C10.2642 11.3281 10.3515 11.2407 10.3515 11.1328C10.3515 11.0248 10.2642 10.9374 10.1562 10.9374Z" fill="black"/>
<path d="M7.03125 11.3281C6.92328 11.3281 6.83592 11.4155 6.83592 11.5234V11.9141C6.83592 12.0221 6.92328 12.1094 7.03125 12.1094C7.13921 12.1094 7.22657 12.0221 7.22657 11.9141V11.5234C7.22657 11.4155 7.13921 11.3281 7.03125 11.3281Z" fill="black"/>
<path d="M9.37498 11.3281C9.26702 11.3281 9.17966 11.4155 9.17966 11.5234V11.9141C9.17966 12.0221 9.26702 12.1094 9.37498 12.1094C9.48295 12.1094 9.5703 12.0221 9.5703 11.9141V11.5234C9.5703 11.4155 9.48295 11.3281 9.37498 11.3281Z" fill="black"/>
<path d="M7.42189 12.1094C7.31412 12.1094 7.22657 12.0216 7.22657 11.9141C7.22657 11.8061 7.13921 11.7188 7.03125 11.7188C6.92328 11.7188 6.83592 11.8061 6.83592 11.9141C6.83592 12.2372 7.09878 12.5 7.42189 12.5C7.52981 12.5 7.61717 12.4126 7.61721 12.3047C7.61721 12.1968 7.52981 12.1094 7.42189 12.1094Z" fill="black"/>
<path d="M9.37503 11.7188C9.26707 11.7188 9.17971 11.8061 9.17971 11.9141C9.17971 12.0216 9.09216 12.1094 8.98439 12.1094C8.87642 12.1094 8.78906 12.1968 8.78906 12.3047C8.78906 12.4127 8.87642 12.5 8.98439 12.5C9.3075 12.5 9.57031 12.2372 9.57036 11.9141C9.57036 11.8061 9.483 11.7188 9.37503 11.7188Z" fill="black"/>
<path d="M8.98437 12.1094H7.42189C7.31392 12.1094 7.22656 12.1967 7.22656 12.3047C7.22656 12.4127 7.31392 12.5 7.42189 12.5H8.98437C9.09234 12.5 9.1797 12.4127 9.1797 12.3047C9.1797 12.1967 9.09234 12.1094 8.98437 12.1094Z" fill="black"/>
<path d="M7.81248 12.5C7.70452 12.5 7.61716 12.5874 7.61716 12.6953V19.5312C7.61716 19.6392 7.70452 19.7266 7.81248 19.7266C7.92044 19.7266 8.0078 19.6392 8.0078 19.5312V12.6953C8.0078 12.5874 7.92044 12.5 7.81248 12.5Z" fill="black"/>
<path d="M8.59373 12.5C8.48577 12.5 8.39841 12.5874 8.39841 12.6953V19.5312C8.39841 19.6392 8.48577 19.7266 8.59373 19.7266C8.70169 19.7266 8.78905 19.6392 8.78905 19.5312V12.6953C8.78905 12.5874 8.70165 12.5 8.59373 12.5Z" fill="black"/>
<path d="M18.3594 10.9375C18.2514 10.9375 18.1641 11.0249 18.1641 11.1328V16.9922C18.1641 17.1001 18.2514 17.1875 18.3594 17.1875C18.4673 17.1875 18.5547 17.1001 18.5547 16.9922V11.1328C18.5547 11.0249 18.4673 10.9375 18.3594 10.9375Z" fill="black"/>
<path d="M17.5781 10.9375C17.4701 10.9375 17.3828 11.0249 17.3828 11.1328V15.8203C17.3828 15.9283 17.4701 16.0156 17.5781 16.0156C17.6861 16.0156 17.7734 15.9283 17.7734 15.8203V11.1328C17.7734 11.0249 17.6861 10.9375 17.5781 10.9375Z" fill="black"/>
<path d="M8.20314 5.46875C8.09517 5.46875 8.00781 5.55611 8.00781 5.66407V9.89609C8.00781 10.0041 8.09517 10.0914 8.20314 10.0914C8.3111 10.0914 8.39841 10.0041 8.39846 9.89609V5.66407C8.39846 5.55611 8.3111 5.46875 8.20314 5.46875Z" fill="black"/>
<path d="M9.1797 6.64062C9.07173 6.64062 8.98438 6.72803 8.98438 6.83595V8.00784C8.98438 8.1158 9.07173 8.20316 9.1797 8.20316C9.28761 8.20316 9.37497 8.1158 9.37502 8.00784V6.83595C9.37502 6.72798 9.28761 6.64062 9.1797 6.64062Z" fill="black"/>
<path d="M9.34216 7.89943C9.2821 7.80943 9.16139 7.78502 9.07135 7.84527L8.48538 8.23592C8.39558 8.29583 8.37131 8.41713 8.43122 8.50678C8.46882 8.56323 8.53084 8.59375 8.59393 8.59375C8.63114 8.59375 8.66869 8.58306 8.70204 8.56089L9.28801 8.17024C9.37781 8.11037 9.40208 7.98903 9.34216 7.89943Z" fill="black"/>
<path d="M7.22657 7.42188C7.11861 7.42188 7.03125 7.50923 7.03125 7.6172V8.78909C7.03125 8.89705 7.11861 8.98441 7.22657 8.98441C7.33454 8.98441 7.4219 8.89705 7.4219 8.78909V7.6172C7.4219 7.50923 7.33454 7.42188 7.22657 7.42188Z" fill="black"/>
<path d="M7.92085 9.01721L7.33493 8.62655C7.24488 8.56669 7.12359 8.5911 7.06406 8.68071C7.00415 8.77036 7.02837 8.89161 7.11822 8.95153L7.70414 9.34218C7.73754 9.3643 7.77509 9.375 7.8123 9.375C7.87544 9.375 7.9374 9.34448 7.975 9.28808C8.03492 9.19842 8.0107 9.07712 7.92085 9.01721Z" fill="black"/>
<path d="M8.34123 5.52589C8.26495 5.44962 8.14131 5.44962 8.06504 5.52589L7.67439 5.91654C7.59812 5.99286 7.59812 6.11645 7.67439 6.19273C7.71253 6.23086 7.76253 6.24996 7.81249 6.24996C7.86244 6.24996 7.91244 6.23086 7.95058 6.19268L8.34123 5.80208C8.4175 5.72581 8.4175 5.60217 8.34123 5.52589Z" fill="black"/>
<path d="M8.73177 5.91661L8.34117 5.52596C8.2649 5.44968 8.14126 5.44968 8.06499 5.52596C7.98871 5.60223 7.98871 5.72587 8.06499 5.80214L8.45563 6.19275C8.49377 6.23088 8.54377 6.24998 8.59373 6.24998C8.64368 6.24998 8.69368 6.23088 8.73177 6.19279C8.80805 6.11652 8.80805 5.99288 8.73177 5.91661Z" fill="black"/>
<path d="M17.5781 10.1562C17.4705 10.1562 17.3828 10.0685 17.3828 9.96089C17.3828 9.85292 17.2955 9.76556 17.1875 9.76556C17.0795 9.76556 16.9922 9.85292 16.9922 9.96089C16.9922 10.284 17.255 10.5469 17.5781 10.5469C17.6861 10.5469 17.7734 10.4595 17.7734 10.3515C17.7734 10.2436 17.6861 10.1562 17.5781 10.1562Z" fill="black"/>
<path d="M18.75 9.76556C18.642 9.76556 18.5547 9.85292 18.5547 9.96089C18.5547 10.0685 18.4669 10.1562 18.3594 10.1562C18.2514 10.1562 18.1641 10.2436 18.1641 10.3515C18.1641 10.4595 18.2514 10.5469 18.3594 10.5469C18.6825 10.5469 18.9453 10.284 18.9453 9.96089C18.9453 9.85292 18.858 9.76556 18.75 9.76556Z" fill="black"/>
<path d="M18.3594 10.1562H17.5781C17.4701 10.1562 17.3828 10.2435 17.3828 10.3515C17.3828 10.4595 17.4701 10.5468 17.5781 10.5468H18.3594C18.4673 10.5468 18.5547 10.4595 18.5547 10.3515C18.5547 10.2435 18.4673 10.1562 18.3594 10.1562Z" fill="black"/>
<path d="M19.5312 9.37494H16.4063C16.2983 9.37494 16.2109 9.46235 16.2109 9.57026C16.2109 9.67823 16.2983 9.76559 16.4063 9.76559H19.5312C19.6392 9.76559 19.7266 9.67823 19.7266 9.57026C19.7266 9.4623 19.6392 9.37494 19.5312 9.37494Z" fill="black"/>
<path d="M19.5312 4.29688C19.4233 4.29688 19.3359 4.38423 19.3359 4.4922V9.5703C19.3359 9.67827 19.4233 9.76562 19.5312 9.76562C19.6392 9.76562 19.7266 9.67827 19.7266 9.57035V4.4922C19.7266 4.38423 19.6392 4.29688 19.5312 4.29688Z" fill="black"/>
<path d="M16.4063 4.29688C16.2983 4.29688 16.2109 4.38423 16.2109 4.4922V9.5703C16.2109 9.67827 16.2983 9.76562 16.4063 9.76562C16.5142 9.76562 16.6016 9.67827 16.6016 9.57035V4.4922C16.6016 4.38423 16.5142 4.29688 16.4063 4.29688Z" fill="black"/>
<path d="M19.5312 4.29688H16.4063C16.2983 4.29688 16.2109 4.38423 16.2109 4.4922C16.2109 4.60016 16.2983 4.68752 16.4063 4.68752H19.5312C19.6392 4.68752 19.7266 4.60016 19.7266 4.4922C19.7266 4.38423 19.6392 4.29688 19.5312 4.29688Z" fill="black"/>
<path d="M16.7969 1.95312C16.6889 1.95312 16.6016 2.04048 16.6016 2.14845V4.10153C16.6016 4.2095 16.6889 4.29686 16.7969 4.29686C16.9048 4.29686 16.9922 4.2095 16.9922 4.10158V2.14845C16.9922 2.04048 16.9048 1.95312 16.7969 1.95312Z" fill="black"/>
<path d="M19.1406 1.95312H16.7969C16.6889 1.95312 16.6016 2.04048 16.6016 2.14845C16.6016 2.25641 16.6889 2.34377 16.7969 2.34377H19.1406C19.2486 2.34377 19.3359 2.25641 19.3359 2.14845C19.3359 2.04048 19.2486 1.95312 19.1406 1.95312Z" fill="black"/>
<path d="M19.1406 1.95312C19.0327 1.95312 18.9453 2.04048 18.9453 2.14845V4.10153C18.9453 4.2095 19.0327 4.29686 19.1406 4.29686C19.2486 4.29686 19.3359 4.2095 19.3359 4.10158V2.14845C19.3359 2.04048 19.2486 1.95312 19.1406 1.95312Z" fill="black"/>
<path d="M17.5781 2.73438C17.4701 2.73438 17.3828 2.82173 17.3828 2.9297V3.71094C17.3828 3.81891 17.4701 3.90627 17.5781 3.90627C17.6861 3.90627 17.7734 3.81891 17.7734 3.71094V2.9297C17.7734 2.82173 17.6861 2.73438 17.5781 2.73438Z" fill="black"/>
<path d="M18.3594 2.73438C18.2514 2.73438 18.1641 2.82173 18.1641 2.9297V3.71094C18.1641 3.81891 18.2514 3.90627 18.3594 3.90627C18.4673 3.90627 18.5547 3.81891 18.5547 3.71094V2.9297C18.5547 2.82173 18.4673 2.73438 18.3594 2.73438Z" fill="black"/>
<path d="M13.0859 14.0625C11.6352 14.0625 10.2684 14.6248 9.23727 15.6456C9.1608 15.7215 9.16001 15.8451 9.23595 15.9218C9.31203 15.9981 9.43523 15.9996 9.51228 15.9233C10.4696 14.9754 11.7388 14.4531 13.0859 14.4531C15.8859 14.4531 18.1641 16.7313 18.1641 19.5313C18.1641 22.3313 15.8859 24.6094 13.0859 24.6094C10.2858 24.6094 8.0078 22.3313 8.0078 19.5313C8.0078 19.4233 7.92045 19.3359 7.81248 19.3359C7.70452 19.3359 7.61716 19.4233 7.61716 19.5313C7.61716 22.5468 10.0704 25 13.0859 25C16.1015 25 18.5547 22.5468 18.5546 19.5313C18.5546 16.5158 16.1014 14.0625 13.0859 14.0625Z" fill="black"/>
<path d="M13.0859 14.8438C11.54 14.8438 10.0941 15.6056 9.21764 16.8823C9.17438 16.9457 9.13238 17.0101 9.09234 17.0754C9.03589 17.1669 9.06431 17.2875 9.15626 17.3439C9.24782 17.4008 9.36794 17.3722 9.42498 17.2799C9.46199 17.22 9.50047 17.1609 9.53997 17.1029C10.3433 15.9329 11.6688 15.2344 13.0859 15.2344C15.4552 15.2344 17.3828 17.162 17.3828 19.5313C17.3828 21.9006 15.4552 23.8282 13.0859 23.8282C10.7166 23.8282 8.78905 21.9006 8.78905 19.5313C8.78905 19.4233 8.70165 19.336 8.59373 19.336C8.48577 19.336 8.39841 19.4233 8.39841 19.5313C8.39841 22.1161 10.5013 24.2188 13.0859 24.2188C15.6708 24.2188 17.7734 22.1162 17.7734 19.5313C17.7734 16.9465 15.6708 14.8438 13.0859 14.8438Z" fill="black"/>
<path d="M18.75 6.25H17.1875C17.0795 6.25 16.9922 6.33736 16.9922 6.44532C16.9922 6.55329 17.0795 6.64065 17.1875 6.64065H18.75C18.858 6.64065 18.9453 6.55329 18.9453 6.44532C18.9453 6.33736 18.858 6.25 18.75 6.25Z" fill="black"/>
<path d="M18.75 7.03125H17.1875C17.0795 7.03125 16.9922 7.11861 16.9922 7.22657C16.9922 7.33454 17.0795 7.4219 17.1875 7.4219H18.75C18.858 7.4219 18.9453 7.33454 18.9453 7.22657C18.9453 7.11861 18.858 7.03125 18.75 7.03125Z" fill="black"/>
</svg>
