<svg width="26" height="26" viewBox="0 0 26 26" fill="none" xmlns="http://www.w3.org/2000/svg">
<g clip-path="url(#clip0)">
<path d="M23.4327 4.47799L15.4953 0.179863C14.7424 -0.227989 13.707 0.085743 13.2992 0.8387L8.65595 9.46633H3.00877C2.28719 9.46633 1.72247 10.0311 1.72247 10.7526V13.0115V24.7137C1.72247 25.4353 2.28719 26 3.00877 26H21.0484C21.77 26 22.3347 25.4353 22.3347 24.7137V21.4509H22.868C23.1504 21.4509 23.37 21.2313 23.37 20.9489V17.2155C23.37 16.9332 23.1504 16.7135 22.868 16.7135H22.3347V13.0429C22.3347 12.4468 21.8954 11.9134 21.3307 11.788L24.0916 6.67412C24.4994 5.88979 24.2171 4.91722 23.4327 4.47799ZM17.7856 2.56423L12.8286 11.7566H11.4168L16.7189 1.99951L17.7856 2.56423ZM14.209 1.3093C14.3659 1.02694 14.7424 0.901447 15.0247 1.05831L15.809 1.49754L10.2874 11.7566H8.56183L14.209 1.3093ZM2.69504 10.7213C2.69504 10.6271 2.82054 10.4703 2.9774 10.4703H8.09124L7.40102 11.7252H2.9774C2.88328 11.7252 2.78916 11.7252 2.69504 11.7566V10.7213ZM21.2994 24.7137C21.2994 24.8706 21.1739 24.9961 21.017 24.9961H2.9774C2.82054 24.9961 2.69504 24.8706 2.69504 24.7137V13.0429C2.69504 12.886 2.82054 12.7605 2.9774 12.7605H7.71476H9.72264H13.3933H20.4523H20.9856C21.1425 12.7605 21.268 12.886 21.268 13.0429V16.7135H19.3542C18.5071 16.7135 17.8483 17.4038 17.8483 18.2195V19.945C17.8483 20.7921 18.5385 21.4509 19.3542 21.4509H21.2994V24.7137ZM22.3033 17.7175H22.3347V20.447H22.3033H19.3542C19.0719 20.447 18.8522 20.2273 18.8522 19.945V18.2195C18.8522 17.9371 19.0719 17.7175 19.3542 17.7175H22.3033ZM23.1818 6.17215L20.1699 11.7566H13.958L18.664 3.0662L22.9308 5.38782C23.2445 5.51331 23.3386 5.88979 23.1818 6.17215Z" fill="black"/>
<path d="M21.268 5.70156L21.017 5.57606C20.3895 5.23096 19.5424 5.48194 19.1973 6.10941L18.8836 6.7055C18.7267 7.01923 18.664 7.39571 18.7895 7.74082C18.8836 8.08592 19.1346 8.36828 19.4483 8.52515L19.6993 8.65064C19.8876 8.74476 20.1072 8.8075 20.3268 8.8075C20.8288 8.8075 21.268 8.52515 21.519 8.11729L21.8327 7.5212C22.1464 6.86237 21.8954 6.04666 21.268 5.70156ZM20.9229 7.0506L20.6091 7.6467C20.515 7.80356 20.2954 7.86631 20.1385 7.77219L19.8876 7.61532C19.8248 7.58395 19.7621 7.48983 19.7307 7.42708C19.6993 7.33296 19.6993 7.23884 19.7621 7.1761L20.0758 6.58001C20.1385 6.48589 20.264 6.39177 20.3895 6.39177C20.4523 6.39177 20.4836 6.39177 20.5464 6.42314L20.7974 6.54863C20.9229 6.67413 20.9856 6.86237 20.9229 7.0506Z" fill="black"/>
</g>
<defs>
<clipPath id="clip0">
<rect width="26" height="26" fill="white"/>
</clipPath>
</defs>
</svg>
