<svg width="25" height="25" viewBox="0 0 25 25" fill="none" xmlns="http://www.w3.org/2000/svg">
<path d="M20.9228 12.5C20.9231 11.2603 20.6492 10.0359 20.1208 8.91449C19.5924 7.79306 18.8225 6.80234 17.8664 6.01328L16.5441 0.265039C16.5267 0.189716 16.4843 0.122516 16.4238 0.0743877C16.3633 0.0262593 16.2882 3.93483e-05 16.2109 0L8.78906 0C8.71174 3.93483e-05 8.63672 0.0262593 8.57621 0.0743877C8.51571 0.122516 8.47328 0.189716 8.45585 0.265039L7.13359 6.01328C6.17764 6.8025 5.40794 7.79325 4.87956 8.91465C4.35118 10.036 4.07719 11.2604 4.07719 12.5C4.07719 13.7396 4.35118 14.964 4.87956 16.0854C5.40794 17.2068 6.17764 18.1975 7.13359 18.9867L8.45585 24.735C8.47328 24.8103 8.51571 24.8775 8.57621 24.9256C8.63672 24.9737 8.71174 25 8.78906 25H16.2109C16.2882 25 16.3633 24.9737 16.4238 24.9256C16.4843 24.8775 16.5267 24.8103 16.5441 24.735L17.8664 18.9867C18.8225 18.1977 19.5924 17.2069 20.1208 16.0855C20.6492 14.9641 20.9231 13.7397 20.9228 12.5ZM7.97695 5.39648L9.06113 0.683594H15.9389L17.023 5.39648C15.6714 4.53585 14.1023 4.07869 12.5 4.07869C10.8976 4.07869 9.32855 4.53585 7.97695 5.39648ZM17.023 19.6035L15.9389 24.3164H9.06113L7.97695 19.6035C9.3282 20.4651 10.8974 20.9228 12.5 20.9228C14.1026 20.9228 15.6718 20.4651 17.023 19.6035ZM13.6816 20.149C13.2907 20.2095 12.8956 20.2397 12.5 20.2393C10.9096 20.228 9.36051 19.732 8.05934 18.8175C6.75816 17.903 5.76682 16.6135 5.21757 15.1209C4.91497 14.2802 4.7604 13.3935 4.76074 12.5C4.77151 10.9404 5.24846 9.41974 6.13027 8.13336C7.01207 6.84699 8.25844 5.85373 9.70917 5.28125C10.5994 4.93704 11.5456 4.76057 12.5 4.76074C14.0904 4.77199 15.6395 5.26795 16.9406 6.18247C18.2418 7.09698 19.2332 8.38655 19.7824 9.8791C20.1688 10.9534 20.3128 12.0998 20.204 13.2362C20.0953 14.3727 19.7366 15.471 19.1535 16.4525C18.5704 17.434 17.7775 18.2744 16.8315 18.9135C15.8855 19.5526 14.8098 19.9745 13.6816 20.149Z" fill="black"/>
<path d="M17.0996 7.95556C17.0919 7.94503 17.0836 7.93493 17.0748 7.92529C17.0651 7.91647 17.0549 7.90819 17.0443 7.90048C15.8353 6.70249 14.2021 6.0304 12.5 6.0304C10.7979 6.0304 9.16473 6.70249 7.95567 7.90048C7.94507 7.90819 7.9349 7.91647 7.9252 7.92529C7.91639 7.93493 7.90811 7.94503 7.90039 7.95556C6.70238 9.16469 6.03027 10.798 6.03027 12.5001C6.03027 14.2022 6.70238 15.8355 7.90039 17.0446C7.90811 17.0552 7.91639 17.0653 7.9252 17.0749C7.93486 17.0838 7.94503 17.092 7.95567 17.0997C9.16473 18.2977 10.7979 18.9698 12.5 18.9698C14.2021 18.9698 15.8353 18.2977 17.0443 17.0997C17.055 17.092 17.0652 17.0838 17.0748 17.0749C17.0836 17.0653 17.0919 17.0552 17.0996 17.0446C18.2976 15.8355 18.9697 14.2022 18.9697 12.5001C18.9697 10.798 18.2976 9.16469 17.0996 7.95556ZM17.6514 12.8419H18.2752C18.1993 14.1382 17.6877 15.3709 16.8233 16.3399L16.3842 15.9011C16.3197 15.8388 16.2334 15.8044 16.1437 15.8052C16.0541 15.806 15.9684 15.8419 15.9051 15.9053C15.8417 15.9687 15.8058 16.0544 15.805 16.1441C15.8042 16.2337 15.8387 16.32 15.901 16.3845L16.3399 16.8233C15.3708 17.6877 14.1381 18.1993 12.8418 18.2753V17.6515C12.8418 17.5608 12.8058 17.4739 12.7417 17.4098C12.6776 17.3457 12.5907 17.3097 12.5 17.3097C12.4094 17.3097 12.3224 17.3457 12.2583 17.4098C12.1942 17.4739 12.1582 17.5608 12.1582 17.6515V18.2753C10.8619 18.1993 9.62925 17.6877 8.66016 16.8233L9.09903 16.3845C9.13168 16.3529 9.15773 16.3152 9.17565 16.2735C9.19357 16.2318 9.20301 16.187 9.20341 16.1416C9.20381 16.0962 9.19517 16.0512 9.178 16.0092C9.16082 15.9672 9.13545 15.929 9.10336 15.8969C9.07128 15.8648 9.03312 15.8394 8.99112 15.8223C8.94912 15.8051 8.90411 15.7964 8.85873 15.7968C8.81334 15.7972 8.76849 15.8066 8.72679 15.8245C8.68508 15.8424 8.64736 15.8684 8.61582 15.9011L8.17676 16.3399C7.31234 15.3709 6.80069 14.1382 6.72481 12.8419H7.34864C7.43929 12.8419 7.52622 12.8059 7.59032 12.7418C7.65442 12.6777 7.69043 12.5907 7.69043 12.5001C7.69043 12.4094 7.65442 12.3225 7.59032 12.2584C7.52622 12.1943 7.43929 12.1583 7.34864 12.1583H6.72481C6.80069 10.862 7.31234 9.62928 8.17676 8.66025L8.61582 9.09911C8.64736 9.13175 8.68508 9.15778 8.72679 9.17569C8.76849 9.19359 8.81334 9.20301 8.85873 9.2034C8.90411 9.20378 8.94912 9.19513 8.99112 9.17793C9.03312 9.16074 9.07128 9.13535 9.10336 9.10325C9.13545 9.07115 9.16082 9.03299 9.178 8.99098C9.19517 8.94897 9.20381 8.90396 9.20341 8.85857C9.20301 8.81319 9.19357 8.76834 9.17565 8.72665C9.15773 8.68495 9.13168 8.64724 9.09903 8.61572L8.66016 8.17685C9.62925 7.31251 10.8619 6.80087 12.1582 6.7249V7.34872C12.1582 7.43937 12.1942 7.52631 12.2583 7.59041C12.3224 7.65451 12.4094 7.69052 12.5 7.69052C12.5907 7.69052 12.6776 7.65451 12.7417 7.59041C12.8058 7.52631 12.8418 7.43937 12.8418 7.34872V6.7249C14.1381 6.80087 15.3708 7.31251 16.3399 8.17685L15.901 8.61572C15.8683 8.64724 15.8423 8.68495 15.8244 8.72665C15.8064 8.76834 15.797 8.81319 15.7966 8.85857C15.7962 8.90396 15.8048 8.94897 15.822 8.99098C15.8392 9.03299 15.8646 9.07115 15.8967 9.10325C15.9287 9.13535 15.9669 9.16074 16.0089 9.17793C16.0509 9.19513 16.0959 9.20378 16.1413 9.2034C16.1867 9.20301 16.2315 9.19359 16.2732 9.17569C16.3149 9.15778 16.3527 9.13175 16.3842 9.09911L16.8233 8.66025C17.6877 9.62928 18.1993 10.862 18.2752 12.1583H17.6514C17.5607 12.1583 17.4738 12.1943 17.4097 12.2584C17.3456 12.3225 17.3096 12.4094 17.3096 12.5001C17.3096 12.5907 17.3456 12.6777 17.4097 12.7418C17.4738 12.8059 17.5607 12.8419 17.6514 12.8419Z" fill="black"/>
<path d="M13.765 13.2813C13.8896 13.0809 13.9646 12.8539 13.9839 12.6188C14.0031 12.3837 13.9661 12.1474 13.8759 11.9295C13.7856 11.7116 13.6448 11.5183 13.4649 11.3657C13.2851 11.2131 13.0715 11.1056 12.8418 11.052V8.93555C12.8418 8.8449 12.8058 8.75796 12.7417 8.69386C12.6776 8.62976 12.5907 8.59375 12.5 8.59375C12.4094 8.59375 12.3224 8.62976 12.2583 8.69386C12.1942 8.75796 12.1582 8.8449 12.1582 8.93555V11.052C11.9479 11.101 11.7509 11.1951 11.5806 11.328C11.4104 11.4608 11.2711 11.629 11.1725 11.8211C11.0738 12.0131 11.0181 12.2243 11.0092 12.44C11.0003 12.6557 11.0385 12.8708 11.1211 13.0703C11.2036 13.2698 11.3286 13.4489 11.4874 13.5953C11.6461 13.7416 11.8348 13.8517 12.0403 13.9178C12.2458 13.9839 12.4633 14.0045 12.6776 13.9782C12.8919 13.9518 13.0979 13.8792 13.2813 13.7652L14.1498 14.6338C14.1816 14.6655 14.2192 14.6907 14.2607 14.7079C14.3022 14.7251 14.3466 14.7339 14.3915 14.7339C14.4364 14.7339 14.4808 14.7251 14.5223 14.7079C14.5638 14.6907 14.6015 14.6655 14.6332 14.6338C14.6649 14.602 14.6901 14.5644 14.7073 14.5229C14.7245 14.4814 14.7333 14.437 14.7333 14.3921C14.7333 14.3472 14.7245 14.3028 14.7073 14.2613C14.6901 14.2198 14.6649 14.1821 14.6332 14.1504L13.765 13.2813ZM11.6947 12.5C11.6946 12.3675 11.7272 12.237 11.7896 12.1201C11.8519 12.0031 11.9422 11.9034 12.0523 11.8297C12.1625 11.756 12.2891 11.7106 12.421 11.6976C12.5528 11.6845 12.6859 11.7042 12.8084 11.7548C12.9308 11.8055 13.0389 11.8855 13.123 11.988C13.2071 12.0904 13.2646 12.2119 13.2905 12.3419C13.3164 12.4719 13.3099 12.6062 13.2714 12.733C13.233 12.8599 13.1638 12.9752 13.0701 13.0689C12.9576 13.182 12.8141 13.2591 12.6577 13.2905C12.5013 13.3218 12.3391 13.306 12.1918 13.2451C12.0444 13.1841 11.9184 13.0808 11.8298 12.9481C11.7413 12.8155 11.6941 12.6595 11.6943 12.5H11.6947Z" fill="black"/>
<path d="M11.0352 2.68555H13.9648C14.0555 2.68555 14.1424 2.64954 14.2065 2.58544C14.2706 2.52134 14.3066 2.4344 14.3066 2.34375C14.3066 2.2531 14.2706 2.16616 14.2065 2.10206C14.1424 2.03796 14.0555 2.00195 13.9648 2.00195H11.0352C10.9445 2.00195 10.8576 2.03796 10.7935 2.10206C10.7294 2.16616 10.6934 2.2531 10.6934 2.34375C10.6934 2.4344 10.7294 2.52134 10.7935 2.58544C10.8576 2.64954 10.9445 2.68555 11.0352 2.68555Z" fill="black"/>
<path d="M13.9648 22.3145H11.0352C10.9445 22.3145 10.8576 22.3505 10.7935 22.4146C10.7294 22.4787 10.6934 22.5656 10.6934 22.6562C10.6934 22.7469 10.7294 22.8338 10.7935 22.8979C10.8576 22.962 10.9445 22.998 11.0352 22.998H13.9648C14.0555 22.998 14.1424 22.962 14.2065 22.8979C14.2706 22.8338 14.3066 22.7469 14.3066 22.6562C14.3066 22.5656 14.2706 22.4787 14.2065 22.4146C14.1424 22.3505 14.0555 22.3145 13.9648 22.3145Z" fill="black"/>
</svg>
