<svg width="25" height="25" viewBox="0 0 25 25" fill="none" xmlns="http://www.w3.org/2000/svg">
<g clip-path="url(#clip0)">
<path d="M18.1257 14.6768C17.9234 14.6768 17.7595 14.8407 17.7595 15.043C17.7595 15.2452 17.9234 15.4092 18.1257 15.4092H20.0859C20.2882 15.4092 20.4522 15.2452 20.4522 15.043C20.4522 14.8407 20.2882 14.6768 20.0859 14.6768H18.1257Z" fill="black"/>
<path d="M18.1257 20.8649H20.0859C20.2882 20.8649 20.4522 20.7009 20.4522 20.4987C20.4522 20.2964 20.2882 20.1324 20.0859 20.1324H18.1257C17.9234 20.1324 17.7595 20.2964 17.7595 20.4987C17.7595 20.7009 17.9234 20.8649 18.1257 20.8649Z" fill="black"/>
<path d="M24.1558 11.0905H13.4612V11.0481C13.4612 10.6793 13.4129 10.3217 13.323 9.98087H15.9403C15.953 9.98087 15.9655 9.98024 15.9778 9.97897C16.4236 9.95914 16.7805 9.59132 16.7805 9.14069V1.26036C16.7805 0.797131 16.4036 0.420227 15.9403 0.420227H2.60435C2.14111 0.420227 1.76421 0.797131 1.76421 1.26036V9.14073C1.76421 9.59137 2.12104 9.95914 2.56685 9.97902C2.5792 9.98029 2.5917 9.98092 2.60435 9.98092H5.22163C5.13174 10.3218 5.0834 10.6794 5.0834 11.0481V11.0905H0.844189C0.378711 11.0905 0 11.4692 0 11.9347V12.8232C0 13.2887 0.378711 13.6674 0.844189 13.6674H1.66079V23.8087C1.66079 24.2339 2.00669 24.5798 2.43188 24.5798H3.17827C3.60347 24.5798 3.94937 24.2339 3.94937 23.8087V13.6674H5.08345V14.3106C5.08345 15.5096 6.05894 16.4851 7.25796 16.4851H8.9061V17.597H5.60903C5.18984 17.597 4.84878 17.938 4.84878 18.3573C4.84878 19.2203 5.55093 19.9225 6.41396 19.9225H8.9061V22.6319H7.77725C7.4436 22.6319 7.12334 22.7733 6.89858 23.0197L6.03486 23.9668C5.89858 24.1162 5.90923 24.3479 6.05869 24.4841C6.20815 24.6205 6.4398 24.6098 6.57603 24.4603L7.43975 23.5132C7.52607 23.4186 7.64907 23.3643 7.7772 23.3643H8.90605V24.2125C8.90605 24.4148 9.07002 24.5787 9.27227 24.5787C9.47451 24.5787 9.63848 24.4148 9.63848 24.2125V23.3643H10.7674C10.8955 23.3643 11.0185 23.4186 11.1049 23.5132L11.9686 24.4603C12.1049 24.6099 12.3366 24.6203 12.4859 24.4841C12.6354 24.3479 12.646 24.1162 12.5097 23.9668L11.646 23.0197C11.4212 22.7733 11.101 22.6319 10.7674 22.6319H9.63848V19.9225H12.1306C12.9937 19.9225 13.6958 19.2203 13.6958 18.3573C13.6958 17.9381 13.3548 17.597 12.9355 17.597H9.63848V16.4851H11.2867C12.4857 16.4851 13.4612 15.5096 13.4612 14.3106V13.6674H14.8724V23.8087C14.8724 24.2339 15.2183 24.5798 15.6435 24.5798H22.5681C22.9933 24.5798 23.3392 24.2339 23.3392 23.8087V16.9006C23.3392 16.6984 23.1752 16.5344 22.973 16.5344C22.7708 16.5344 22.6068 16.6984 22.6068 16.9006V18.3912H15.6048V13.6674H22.6067V15.1917C22.6067 15.3939 22.7707 15.5579 22.9729 15.5579C23.1752 15.5579 23.3392 15.3939 23.3392 15.1917V13.6674H24.1558C24.6212 13.6674 25 13.2887 25 12.8232V11.9347C25 11.4692 24.6213 11.0905 24.1558 11.0905ZM12.9356 18.3295C12.9509 18.3295 12.9634 18.342 12.9634 18.3573C12.9634 18.8165 12.5898 19.1901 12.1307 19.1901H6.41396C5.95479 19.1901 5.5812 18.8165 5.5812 18.3573C5.5812 18.342 5.5937 18.3295 5.60903 18.3295H12.9356ZM22.6068 19.1236V23.8087C22.6068 23.83 22.5895 23.8474 22.5681 23.8474H15.6435C15.6222 23.8474 15.6048 23.83 15.6048 23.8087V19.1236H22.6068ZM2.60435 9.24845C2.54497 9.24845 2.49663 9.20011 2.49663 9.14069V8.21212H5.48862C5.69087 8.21212 5.85483 8.04816 5.85483 7.84591C5.85483 7.64366 5.69087 7.4797 5.48862 7.4797H2.49663V1.26036C2.49663 1.20099 2.54497 1.15265 2.60435 1.15265H15.9403C15.9997 1.15265 16.048 1.20099 16.048 1.26036V7.47975H13.0713C12.869 7.47975 12.7051 7.64371 12.7051 7.84596C12.7051 8.04821 12.869 8.21217 13.0713 8.21217H16.048V9.14073C16.048 9.20016 15.9997 9.2485 15.9403 9.2485H13.0542C12.3798 7.83693 10.9383 6.85919 9.27232 6.85919C7.60635 6.85919 6.16479 7.83688 5.49038 9.2485H2.60435V9.24845ZM3.21689 23.8087C3.21689 23.83 3.19956 23.8474 3.17822 23.8474H2.43188C2.41055 23.8474 2.39321 23.83 2.39321 23.8087V13.6674H3.21689V23.8087ZM0.844189 12.935C0.782568 12.935 0.732422 12.8848 0.732422 12.8232V11.9347C0.732422 11.8731 0.782568 11.8229 0.844189 11.8229H5.0834V12.935H0.844189ZM12.7288 14.3106C12.7288 15.1058 12.0819 15.7527 11.2867 15.7527H7.25796C6.46279 15.7527 5.81587 15.1058 5.81587 14.3106V11.0481C5.81587 9.14215 7.36645 7.59157 9.27236 7.59157C11.1783 7.59157 12.7289 9.14215 12.7289 11.0481V14.3106H12.7288ZM24.2676 12.8232C24.2676 12.8848 24.2174 12.935 24.1558 12.935H13.4612V11.8229H24.1558C24.2174 11.8229 24.2676 11.8731 24.2676 11.9347V12.8232Z" fill="black"/>
</g>
<defs>
<clipPath id="clip0">
<rect width="25" height="25" fill="white"/>
</clipPath>
</defs>
</svg>
